<svg width="213" height="47" viewBox="0 0 213 47" fill="none" xmlns="http://www.w3.org/2000/svg">
<path d="M79.8587 33.918H76.6151V19.6943H76.5172L70.6872 33.7513H68.2265L62.3964 19.6943H62.2986V33.918H59.041V13.8743H63.2213L69.4009 29.0008H69.5128L75.6924 13.8743H79.8587V33.918Z" fill="black" fill-opacity="0.4"/>
<path d="M88.1214 31.5427C89.1188 31.5427 89.9576 31.2511 90.638 30.6677C91.3277 30.075 91.6726 29.3388 91.6726 28.4591V27.334L88.2473 27.5423C87.4084 27.5979 86.756 27.8063 86.2899 28.1674C85.8332 28.5193 85.6049 28.9869 85.6049 29.5703C85.6049 30.1722 85.8332 30.6538 86.2899 31.0149C86.756 31.3668 87.3665 31.5427 88.1214 31.5427ZM87.0729 34.1541C85.6282 34.1541 84.4398 33.7421 83.5077 32.9179C82.585 32.0937 82.1236 31.0242 82.1236 29.7092C82.1236 28.4035 82.6083 27.371 83.5776 26.6117C84.5563 25.8524 85.9497 25.4171 87.7579 25.306L91.6726 25.0838V24.0281C91.6726 23.2595 91.4256 22.6622 90.9316 22.2362C90.4469 21.8103 89.7712 21.5973 88.9044 21.5973C88.0935 21.5973 87.4317 21.7779 86.9191 22.139C86.4064 22.5002 86.0942 22.9909 85.9824 23.6114H82.7528C82.8273 22.2131 83.4285 21.0787 84.5563 20.2083C85.6934 19.3285 87.1894 18.8887 89.0442 18.8887C90.8804 18.8887 92.3484 19.3332 93.4482 20.2221C94.5574 21.1111 95.1119 22.2964 95.1119 23.7781V33.918H91.7565V31.5705H91.6866C91.2672 32.3576 90.6334 32.9873 89.7852 33.4596C88.937 33.9226 88.0329 34.1541 87.0729 34.1541Z" fill="black" fill-opacity="0.4"/>
<path d="M97.6565 23.4169C97.6565 22.0649 98.2064 20.9722 99.3062 20.1388C100.406 19.3054 101.855 18.8887 103.654 18.8887C105.388 18.8887 106.795 19.3146 107.877 20.1666C108.967 21.0093 109.536 22.1112 109.582 23.4725H106.339C106.283 22.8335 106.012 22.3335 105.528 21.9723C105.043 21.6112 104.395 21.4306 103.584 21.4306C102.82 21.4306 102.205 21.5973 101.739 21.9307C101.273 22.2548 101.04 22.6854 101.04 23.2224C101.04 24.0373 101.748 24.6161 103.165 24.9587L105.807 25.5421C107.289 25.8848 108.347 26.3663 108.981 26.9867C109.615 27.6072 109.932 28.4637 109.932 29.5564C109.932 30.9455 109.345 32.0706 108.17 32.9318C106.996 33.7837 105.472 34.2097 103.598 34.2097C101.753 34.2097 100.266 33.793 99.1385 32.9596C98.02 32.1169 97.4002 30.9918 97.279 29.5842H100.704C100.807 30.2602 101.114 30.7788 101.627 31.1399C102.149 31.5011 102.848 31.6817 103.724 31.6817C104.572 31.6817 105.239 31.5242 105.723 31.2094C106.217 30.8853 106.464 30.45 106.464 29.9037C106.464 29.4777 106.311 29.1397 106.003 28.8897C105.705 28.6304 105.197 28.4082 104.479 28.223L101.781 27.5979C99.0313 26.9589 97.6565 25.5653 97.6565 23.4169Z" fill="black" fill-opacity="0.4"/>
<path d="M131.421 33.918L129.701 28.7369H122.277L120.557 33.918H116.838L123.997 13.8743H128.065L135.223 33.918H131.421ZM125.94 17.4163L123.116 25.9727H128.848L126.038 17.4163H125.94Z" fill="black" fill-opacity="0.4"/>
<path d="M143.109 31.1816C144.227 31.1816 145.117 30.7649 145.779 29.9315C146.441 29.0888 146.772 27.9498 146.772 26.5145C146.772 25.0791 146.436 23.9355 145.765 23.0835C145.103 22.2223 144.218 21.7917 143.109 21.7917C142.009 21.7917 141.133 22.2177 140.48 23.0697C139.837 23.9216 139.516 25.0699 139.516 26.5145C139.516 27.9683 139.837 29.1119 140.48 29.9454C141.133 30.7695 142.009 31.1816 143.109 31.1816ZM143.095 39.4741C141.277 39.4741 139.758 39.0574 138.537 38.224C137.325 37.3998 136.631 36.3349 136.454 35.0292H139.907C140.093 35.5941 140.485 36.0478 141.081 36.3905C141.678 36.7424 142.386 36.9183 143.206 36.9183C144.325 36.9183 145.196 36.6312 145.821 36.0571C146.455 35.4922 146.772 34.7329 146.772 33.7791V31.2927H146.688C146.296 32.0984 145.686 32.7419 144.856 33.2235C144.036 33.6957 143.099 33.9319 142.046 33.9319C140.201 33.9319 138.723 33.2651 137.614 31.9317C136.505 30.5889 135.95 28.7786 135.95 26.5006C135.95 24.1763 136.505 22.3381 137.614 20.9861C138.723 19.6249 140.224 18.9442 142.116 18.9442C143.16 18.9442 144.092 19.1943 144.912 19.6943C145.732 20.1851 146.357 20.8611 146.786 21.7223H146.842V19.1943H150.253V33.6819C150.253 35.4413 149.6 36.8442 148.296 37.8906C146.991 38.9463 145.257 39.4741 143.095 39.4741Z" fill="black" fill-opacity="0.4"/>
<path d="M159.48 21.5695C158.511 21.5695 157.7 21.9029 157.048 22.5696C156.405 23.2271 156.046 24.0744 155.971 25.1115H162.892C162.854 24.0651 162.524 23.2132 161.899 22.5557C161.275 21.8982 160.468 21.5695 159.48 21.5695ZM162.906 29.5148H166.163C165.94 30.9131 165.227 32.0474 164.024 32.9179C162.822 33.7791 161.349 34.2097 159.606 34.2097C157.388 34.2097 155.645 33.5337 154.377 32.1817C153.11 30.8205 152.476 28.9638 152.476 26.6117C152.476 24.2781 153.105 22.4076 154.363 21C155.631 19.5924 157.332 18.8887 159.466 18.8887C161.564 18.8887 163.227 19.56 164.458 20.9028C165.688 22.2362 166.303 24.0235 166.303 26.2644V27.3895H155.943V27.5979C155.943 28.7832 156.279 29.737 156.95 30.4593C157.63 31.1816 158.539 31.5427 159.676 31.5427C160.478 31.5427 161.167 31.3622 161.745 31.001C162.332 30.6306 162.719 30.1352 162.906 29.5148Z" fill="black" fill-opacity="0.4"/>
<path d="M168.554 33.918V19.1943H171.895V21.7223H171.965C172.375 20.8333 172.972 20.1434 173.755 19.6526C174.547 19.1618 175.503 18.9165 176.621 18.9165C178.243 18.9165 179.501 19.4026 180.396 20.3749C181.3 21.3473 181.752 22.69 181.752 24.4031V33.918H178.271V25.0976C178.271 24.042 178.019 23.2363 177.516 22.6807C177.022 22.1251 176.285 21.8473 175.307 21.8473C174.31 21.8473 173.513 22.1714 172.916 22.8196C172.329 23.4678 172.035 24.3244 172.035 25.3893V33.918H168.554Z" fill="black" fill-opacity="0.4"/>
<path d="M197.606 24.4448H194.321C194.172 23.6206 193.818 22.9585 193.258 22.4585C192.699 21.9492 191.972 21.6945 191.077 21.6945C189.978 21.6945 189.101 22.1297 188.449 23.0002C187.796 23.8614 187.47 25.0467 187.47 26.5561C187.47 28.0841 187.796 29.2786 188.449 30.1398C189.101 30.9918 189.987 31.4177 191.105 31.4177C191.981 31.4177 192.699 31.1862 193.258 30.7232C193.818 30.2509 194.176 29.5935 194.335 28.7508H197.62C197.481 30.3991 196.814 31.7233 195.621 32.7234C194.437 33.7143 192.918 34.2097 191.063 34.2097C188.882 34.2097 187.149 33.5291 185.862 32.1678C184.576 30.7973 183.933 28.9267 183.933 26.5561C183.933 24.2133 184.576 22.352 185.862 20.9722C187.149 19.5832 188.873 18.8887 191.035 18.8887C192.937 18.8887 194.475 19.4165 195.649 20.4722C196.833 21.5186 197.485 22.8428 197.606 24.4448Z" fill="black" fill-opacity="0.4"/>
<path d="M201.353 39.3908C200.598 39.3908 200.142 39.3723 199.983 39.3352V36.5988C200.142 36.6359 200.477 36.6544 200.99 36.6544C201.708 36.6544 202.267 36.5062 202.668 36.2099C203.068 35.9136 203.367 35.4274 203.562 34.7514C203.562 34.7422 203.595 34.6079 203.66 34.3486C203.735 34.0893 203.767 33.9504 203.758 33.9319L198.487 19.1943H202.29L205.785 30.9732H205.841L209.337 19.1943H213L207.645 34.5014C207.011 36.3256 206.228 37.5943 205.296 38.3073C204.364 39.0296 203.05 39.3908 201.353 39.3908Z" fill="black" fill-opacity="0.4"/>
<g clip-path="url(#clip0_81_826)">
<path d="M21.5265 22.3515C21.0725 21.5867 20.7522 20.8332 20.6101 20.0135C20.2034 17.6691 20.822 15.6065 22.44 13.8757C25.414 10.6943 30.4934 10.8926 33.221 14.2846C34.5 15.8753 35.0161 17.7122 34.6868 19.7232C34.1943 22.731 32.4327 24.7016 29.5008 25.5639C27.6856 26.0977 25.9129 25.8252 24.2481 24.9298C24.0524 24.8245 23.9545 24.8457 23.8039 24.9975C22.8034 26.0068 21.7914 27.0046 20.7836 28.0066C20.7342 28.0556 20.6884 28.1085 20.6176 28.1851C20.8391 28.4009 21.0522 28.607 21.2635 28.8149C21.3951 28.9445 21.5313 29.0706 21.6527 29.209C21.8595 29.4449 21.874 29.74 21.659 29.9607C21.0889 30.5457 20.5105 31.1232 19.9213 31.6894C19.6887 31.9128 19.3615 31.8801 19.1143 31.6418C18.8331 31.3705 18.559 31.0919 18.2811 30.8171C18.2314 30.768 18.1788 30.7219 18.1303 30.6772C17.7766 31.0339 17.4333 31.3802 17.0646 31.7523C17.3608 32.0408 17.6712 32.3413 17.9797 32.6438C18.3299 32.9875 18.3281 33.285 17.9792 33.6306C17.4642 34.1408 16.9517 34.6531 16.436 35.1623C16.1294 35.465 15.8275 35.4673 15.5214 35.1646C14.6626 34.3151 13.8056 33.4637 12.9505 32.6105C12.3783 32.0397 12.3799 31.3914 12.9546 30.8199C15.7462 28.0446 18.5388 25.2702 21.3323 22.4967C21.3875 22.4414 21.458 22.4019 21.5265 22.3515ZM27.6526 15.1744C25.6912 15.1661 24.081 16.7396 24.0696 18.6761C24.0578 20.6457 25.6473 22.2493 27.62 22.2578C29.584 22.2663 31.1957 20.6791 31.2022 18.7297C31.2087 16.7714 29.6226 15.1827 27.6526 15.1744Z" fill="black" fill-opacity="0.4"/>
<path d="M23.6534 47C10.6109 47 0 36.4579 0 23.5C0 10.5421 10.6109 0 23.6534 0C36.6959 0 47.3068 10.5421 47.3068 23.5C47.3068 36.4579 36.6959 47 23.6534 47ZM23.6534 2.54513C12.0233 2.54513 2.56174 11.9455 2.56174 23.5C2.56174 35.0545 12.0233 44.4549 23.6534 44.4549C35.2835 44.4549 44.745 35.0545 44.745 23.5C44.745 11.9455 35.2835 2.54513 23.6534 2.54513Z" fill="black" fill-opacity="0.4"/>
</g>
<defs>
<clipPath id="clip0_81_826">
<rect width="47.3068" height="47" fill="white"/>
</clipPath>
</defs>
</svg>
