<svg width="203" height="53" viewBox="0 0 203 53" fill="none" xmlns="http://www.w3.org/2000/svg">
<g clip-path="url(#clip0_81_866)">
<path d="M90.8098 27.6425H95.0564L90.8098 40.9199H87.0939L84.9704 33.8296L82.8469 40.9199H79.1314L74.8848 27.6425H79.1314L81.0422 34.7592L83.1125 27.6425H86.8284L88.8983 34.7592L90.8098 27.6425Z" fill="white" fill-opacity="0.4"/>
<path d="M99.6752 35.8747C100.135 37.1139 101.197 37.7335 102.86 37.7335C103.939 37.7335 104.788 37.3971 105.408 36.7242L108.593 38.5566C107.283 40.38 105.355 41.2917 102.807 41.2917C100.577 41.2917 98.7945 40.6274 97.4587 39.2999C96.1228 37.9724 95.4551 36.2995 95.4551 34.2812C95.4551 32.2811 96.1139 30.6123 97.4322 29.2755C98.7502 27.939 100.445 27.2706 102.515 27.2706C104.444 27.2706 106.049 27.939 107.332 29.2755C108.615 30.6127 109.257 32.2811 109.257 34.2812C109.257 34.8475 109.204 35.3788 109.098 35.8744H99.6752V35.8747ZM99.5955 32.9004H105.302C104.912 31.5024 103.975 30.8027 102.489 30.8027C100.949 30.8027 99.9844 31.5024 99.5955 32.9004Z" fill="white" fill-opacity="0.4"/>
<path d="M111.513 40.9199V21.5354H115.494V40.9199H111.513Z" fill="white" fill-opacity="0.4"/>
<path d="M118.413 40.9199V21.5354H122.395V40.9199H118.413Z" fill="white" fill-opacity="0.4"/>
<path d="M131.684 41.2917C129.667 41.2917 127.99 40.6188 126.654 39.2734C125.318 37.9284 124.65 36.2641 124.65 34.2815C124.65 32.299 125.318 30.635 126.654 29.2893C127.99 27.9442 129.667 27.271 131.684 27.271C132.958 27.271 134.13 27.581 135.201 28.2006C136.271 28.8205 137.098 29.6436 137.683 30.6701L134.206 32.6884C133.728 31.6969 132.869 31.2014 131.631 31.2014C130.764 31.2014 130.047 31.4893 129.481 32.0646C128.915 32.6402 128.632 33.3791 128.632 34.2819C128.632 35.1847 128.914 35.9239 129.481 36.4988C130.047 37.0747 130.764 37.362 131.631 37.362C132.887 37.362 133.745 36.8668 134.206 35.8751L137.683 37.8669C137.099 38.9112 136.276 39.7436 135.214 40.3632C134.153 40.9817 132.976 41.2917 131.684 41.2917Z" fill="white" fill-opacity="0.4"/>
<path d="M143.388 30.0058C143.636 29.1559 144.136 28.5057 144.888 28.0542C145.64 27.603 146.467 27.3768 147.37 27.3768V31.8911C146.397 31.732 145.489 31.8959 144.649 32.3825C143.809 32.8698 143.388 33.7148 143.388 34.9183V40.9199H139.407V27.6425H143.388V30.0058Z" fill="white" fill-opacity="0.4"/>
<path d="M157.854 27.6425H162.1L157.561 40.5216C156.818 42.6103 155.84 44.1066 154.629 45.0093C153.417 45.9121 151.872 46.3197 149.997 46.231V42.5134C150.917 42.5134 151.625 42.3495 152.121 42.022C152.616 41.6945 153.014 41.1236 153.315 40.3095L148.033 27.6431H152.413L155.359 35.7688L157.854 27.6425Z" fill="white" fill-opacity="0.4"/>
<path d="M171.496 27.2706C173.248 27.2706 174.743 27.948 175.982 29.3023C177.22 30.6563 177.84 32.3162 177.84 34.2812C177.84 36.2462 177.22 37.9057 175.982 39.26C174.744 40.614 173.248 41.2914 171.496 41.2914C169.798 41.2914 168.479 40.7515 167.541 39.6714V46.2304H163.56V27.6421H167.541V28.8906C168.479 27.8112 169.798 27.2706 171.496 27.2706ZM168.431 36.6448C169.024 37.2287 169.78 37.5211 170.7 37.5211C171.62 37.5211 172.377 37.2287 172.969 36.6448C173.562 36.0606 173.859 35.273 173.859 34.2815C173.859 33.2901 173.562 32.5021 172.969 31.9182C172.376 31.334 171.62 31.0415 170.7 31.0415C169.78 31.0415 169.023 31.334 168.431 31.9182C167.838 32.5021 167.542 33.2901 167.542 34.2815C167.542 35.273 167.838 36.0606 168.431 36.6448Z" fill="white" fill-opacity="0.4"/>
<path d="M187.608 31.4663H184.874V36.1668C184.874 36.6977 185.086 37.0342 185.511 37.1758C185.935 37.3177 186.634 37.3617 187.608 37.3088V40.9202C185.077 41.1855 183.325 40.9419 182.352 40.1899C181.379 39.438 180.893 38.0967 180.893 36.1671V31.4663H178.769V27.6425H180.893V25.12L184.874 23.9248V27.6421H187.608V31.4663Z" fill="white" fill-opacity="0.4"/>
<path d="M200.958 39.2604C199.595 40.6144 197.932 41.2917 195.968 41.2917C194.004 41.2917 192.34 40.6144 190.978 39.2604C189.616 37.906 188.935 36.2462 188.935 34.2815C188.935 32.3162 189.616 30.6567 190.978 29.3027C192.341 27.9483 194.004 27.271 195.968 27.271C197.932 27.271 199.595 27.9483 200.958 29.3027C202.32 30.6567 203.002 32.3165 203.002 34.2815C203.002 36.2465 202.32 37.906 200.958 39.2604ZM193.792 36.5386C194.376 37.1225 195.101 37.4146 195.968 37.4146C196.835 37.4146 197.561 37.1225 198.145 36.5386C198.728 35.9541 199.021 35.2018 199.021 34.2815C199.021 33.3612 198.728 32.6086 198.145 32.0244C197.561 31.4405 196.835 31.1481 195.968 31.1481C195.101 31.1481 194.376 31.4405 193.792 32.0244C193.208 32.6086 192.916 33.3616 192.916 34.2815C192.916 35.2018 193.207 35.9541 193.792 36.5386Z" fill="white" fill-opacity="0.4"/>
<path d="M70.1511 2.38812C69.9082 0.958515 68.4044 0.121717 67.062 0.669502L54.5966 5.7573L51.77 6.91095C50.6544 7.36629 50.8292 8.99967 52.0166 9.20346C53.4693 9.45227 55.1751 9.82204 56.999 10.3709C57.0468 10.3853 57.0945 10.4001 57.1416 10.4159L57.0705 10.5403C58.7515 14.5511 59.6814 18.9546 59.6814 23.5761C59.6814 26.1191 59.3983 28.5959 58.8649 30.9784L67.3451 16.1174C68.5758 17.1402 69.7289 18.2532 70.7937 19.4468C71.6003 20.3506 73.0828 19.6519 72.8798 18.4574L70.1511 2.38812Z" fill="white" fill-opacity="0.4"/>
<path d="M59.6814 23.5757C59.6814 18.9543 58.7515 14.5507 57.0705 10.5399L55.5557 13.1957C57.9306 16.9449 59.3111 21.387 59.3111 26.1542C59.3111 27.8391 59.1387 29.4835 58.8116 31.0715L58.8649 30.978C59.398 28.5958 59.6814 26.1191 59.6814 23.5757Z" fill="white" fill-opacity="0.4"/>
<path d="M55.5555 13.196L44.2017 33.1025L35.9008 15.1023C35.1272 13.4242 33.6196 12.2359 31.8627 11.8462C31.455 11.7558 31.0342 11.7084 30.6058 11.7077C28.3237 11.7005 26.2606 13.0249 25.3026 15.0892L23.7988 18.3295L22.9415 20.1763L16.5549 33.9356L16.2317 33.3689L10.9302 24.0737L10.461 23.2507C9.80454 22.0998 8.33988 21.6991 7.18952 22.3558L1.21205 25.7683C0.0616859 26.425 -0.338828 27.8903 0.317589 29.0412L12.0163 49.5529C13.0581 51.3798 14.9971 52.4997 17.087 52.4997C17.1684 52.4997 17.2508 52.498 17.3326 52.4946C17.6276 52.4822 17.9179 52.4458 18.2023 52.3905C20.0228 52.0365 21.5884 50.8323 22.3843 49.1182L23.2252 47.3068L30.5818 31.4575L30.8786 32.1008L38.3496 48.302C38.6439 48.9402 39.0458 49.5072 39.5267 49.9876C40.5431 51.0028 41.9167 51.6275 43.3999 51.6915C43.8619 51.7104 44.3174 51.6719 44.7595 51.586C46.4096 51.2657 47.8685 50.2491 48.7234 48.7501L49.0721 48.1395L51.3803 44.094L58.8118 31.0712C59.1388 29.4832 59.3113 27.8388 59.3113 26.1539C59.3109 21.3874 57.9304 16.9453 55.5555 13.196Z" fill="white" fill-opacity="0.4"/>
</g>
<defs>
<clipPath id="clip0_81_866">
<rect width="203" height="52" fill="white" transform="translate(0.000976562 0.5)"/>
</clipPath>
</defs>
</svg>
