<svg width="210" height="45" viewBox="0 0 210 45" fill="none" xmlns="http://www.w3.org/2000/svg">
<path d="M138.716 34.1932H132.296V26.5381H137.762V19.8627H132.296V13.2645H138.109V6.26152H123.622V41.199H138.716V34.1932Z" fill="white" fill-opacity="0.4"/>
<path d="M71.1746 13.1836H73.8658V41.199H82.5389V6.17913H62.501V41.199H71.1746V13.1836Z" fill="white" fill-opacity="0.4"/>
<path d="M59.4243 34.1323H53.0912V26.393H58.4861V19.697H53.0912V12.9989H58.8767V6.00381H44.4922V41.1273H59.4243V34.1323Z" fill="white" fill-opacity="0.4"/>
<path d="M150.352 26.5381H153.041V41.199H161.717V6.26152H153.041V18.8033H150.352V6.26152H141.679V41.199H150.352V26.5381Z" fill="white" fill-opacity="0.4"/>
<path d="M169.292 41.199H177.968V13.2645H183.171V6.26152H164.173V13.2645H169.292V41.199Z" fill="white" fill-opacity="0.4"/>
<path d="M94.1755 6.26152H85.501V41.199H94.1755V6.26152Z" fill="white" fill-opacity="0.4"/>
<path d="M121.166 33.5433H119.17V6.36117H109.629V33.5433H106.679V6.36117H97.1377V41.1988H114.572V44.9999H121.166V33.5433Z" fill="white" fill-opacity="0.4"/>
<path d="M195.149 20.4823C192.619 20.4823 190.556 18.4496 190.556 15.9515C190.556 13.4569 192.619 11.4253 195.149 11.4253C197.684 11.4253 199.747 13.4569 199.747 15.9515C199.747 18.4496 197.684 20.4823 195.149 20.4823ZM204.03 11.1886C203.808 10.146 203.376 9.25733 202.733 8.5255C202.091 7.7928 201.129 7.23172 199.853 6.84478C198.572 6.45585 196.756 6.26152 194.398 6.26152H185.627V41.199H194.301V27.1081H196.651C198.555 27.1081 200.096 26.8356 201.279 26.2902C202.459 25.7446 203.271 24.9606 203.709 23.94C204.145 22.9198 204.364 21.295 204.364 19.0675V16.0277C204.364 13.8444 204.253 12.2307 204.03 11.1886Z" fill="white" fill-opacity="0.4"/>
<path d="M195.796 18.2101L194.807 16.3283V18.2101H193.348V13.6972H194.807V15.6331L195.737 13.6972H197.415L196.168 15.9254L197.59 18.2101H195.796ZM195.149 12.5114C193.225 12.5114 191.656 14.0583 191.656 15.9516C191.656 17.8513 193.225 19.3928 195.149 19.3928C197.078 19.3928 198.644 17.8513 198.644 15.9516C198.644 14.0583 197.078 12.5114 195.149 12.5114Z" fill="white" fill-opacity="0.4"/>
<path d="M207.735 8.30744C207.705 8.35232 207.663 8.38387 207.603 8.40489C207.529 8.43275 207.42 8.44639 207.277 8.44639H206.669V7.8796H207.363C207.518 7.8796 207.633 7.90747 207.696 7.96086C207.754 8.01172 207.781 8.07393 207.781 8.15376C207.781 8.20973 207.767 8.25971 207.735 8.30744ZM208.651 9.99043L208.187 9.2728C208.099 9.13985 208.006 9.03047 207.911 8.93729C208.039 8.88615 208.148 8.81967 208.232 8.73273C208.382 8.57676 208.457 8.38131 208.457 8.15375C208.457 7.98016 208.413 7.81879 208.324 7.67589C208.232 7.52617 208.105 7.42021 207.95 7.36026C207.806 7.30543 207.609 7.27986 207.348 7.27986H206.002V10.2268H206.669V9.0549H206.925C207.031 9.0549 207.073 9.06172 207.09 9.06483C207.123 9.07334 207.162 9.09041 207.201 9.11427C207.225 9.13074 207.272 9.16824 207.342 9.25574C207.405 9.33501 207.489 9.45376 207.59 9.60803C207.589 9.60757 207.944 10.1558 207.944 10.1558L207.989 10.2268H208.803L208.651 9.99043Z" fill="white" fill-opacity="0.4"/>
<path d="M207.234 6.0405C205.709 6.0405 204.468 7.26355 204.468 8.76642C204.468 10.2684 205.709 11.4912 207.234 11.4912C208.759 11.4912 210.001 10.2684 210.001 8.76642C210.001 7.26355 208.759 6.0405 207.234 6.0405ZM209.437 8.76642C209.437 9.96219 208.448 10.9361 207.234 10.9361C206.018 10.9361 205.031 9.96219 205.031 8.76642C205.031 7.56867 206.018 6.59564 207.234 6.59564C208.448 6.59564 209.437 7.56867 209.437 8.76642Z" fill="white" fill-opacity="0.4"/>
<path d="M19.0469 39.8042C10.4606 39.8042 3.47519 32.9182 3.47519 24.454C3.47519 16.9137 9.02037 10.6305 16.3009 9.34759V12.7078C16.3009 13.6099 16.7318 14.4396 17.4499 14.9652V17.7871H11.0343C10.2931 17.7871 9.6222 18.1565 9.23281 18.7855C8.85553 19.4113 8.83337 20.1918 9.17338 20.8194L17.2788 36.0723C17.6428 36.757 18.3583 37.183 19.145 37.183C19.9355 37.183 20.6503 36.7561 21.0088 36.0723L29.1189 20.8219C29.4605 20.1847 29.4369 19.4031 29.0536 18.7762C28.673 18.1665 27.9854 17.7871 27.2585 17.7871H20.8405V14.9668C21.563 14.4396 21.9961 13.609 21.9961 12.7078V9.38343C29.1765 10.7461 34.6188 16.9838 34.6188 24.454C34.6188 32.9182 27.6333 39.8042 19.0469 39.8042ZM21.9961 5.90472V2.80318C21.9961 1.25698 20.7172 7.24792e-05 19.145 7.24792e-05C17.5768 7.24792e-05 16.3009 1.25698 16.3009 2.80318V5.8764C7.0957 7.19291 0.000976562 15.0205 0.000976562 24.454C0.000976562 34.8064 8.54494 43.229 19.0469 43.229C29.549 43.229 38.093 34.8064 38.093 24.454C38.093 15.0899 31.1026 7.30616 21.9961 5.90472Z" fill="white" fill-opacity="0.4"/>
</svg>
