<svg width="188" height="67" viewBox="0 0 188 67" fill="none" xmlns="http://www.w3.org/2000/svg">
<path fill-rule="evenodd" clip-rule="evenodd" d="M82.2871 11.3469C82.2871 11.3469 82.2871 11.3469 86.2463 11.3469C87.7013 11.3469 88.4119 12.0561 88.4119 13.6771C88.4119 13.6771 88.4119 13.6771 88.4119 19.3505C88.4119 19.3505 88.4119 19.3505 96.161 19.3505C96.161 19.3505 96.161 19.3505 96.161 13.6771C96.161 12.0561 96.8716 11.3469 98.4959 11.3469C98.4959 11.3469 98.4959 11.3469 102.286 11.3469C102.286 11.3469 102.286 11.3469 102.286 15.0954C102.286 15.0954 102.286 15.0954 100.662 15.0954L100.492 15.2643C100.492 15.2643 100.492 15.2643 100.492 31.2713C100.492 31.2713 100.492 31.2713 96.161 31.2713C96.161 31.2713 96.161 31.2713 96.161 23.2678C96.161 23.2678 96.161 23.2678 88.4119 23.2678C88.4119 23.2678 88.4119 23.2678 88.4119 31.2713C88.4119 31.2713 88.4119 31.2713 84.0806 31.2713C84.0806 31.2713 84.0806 31.2713 84.0806 15.2643C84.0806 15.2643 84.0806 15.0954 83.9114 15.0954C83.9114 15.0954 83.9114 15.0954 82.2871 15.0954C82.2871 15.0954 82.2871 15.0954 82.2871 11.3469Z" fill="white" fill-opacity="0.4"/>
<path fill-rule="evenodd" clip-rule="evenodd" d="M113.622 11.0093H113.724V15.1292L113.622 15.0955C110.374 15.0955 107.87 17.7633 107.87 21.1403C107.87 24.6862 110.374 27.5567 113.622 27.5567L113.724 27.5229V31.6091L113.622 31.6429C107.87 31.6429 103.166 27.0164 103.166 21.1403C103.166 15.4669 107.87 11.0093 113.622 11.0093Z" fill="white" fill-opacity="0.4"/>
<path fill-rule="evenodd" clip-rule="evenodd" d="M113.724 11.0093L115.72 11.2119C120.491 12.1237 124.078 16.1761 124.078 21.1403C124.078 26.2734 120.491 30.4609 115.72 31.4065L113.724 31.6091V27.5229L115.923 27.0501C118.055 26.0708 119.578 23.8082 119.578 21.1403C119.578 18.6076 118.055 16.4801 115.923 15.5683L113.724 15.1292V11.0093Z" fill="white" fill-opacity="0.4"/>
<path fill-rule="evenodd" clip-rule="evenodd" d="M124.958 11.3469C124.958 11.3469 124.958 11.3469 131.016 11.3469H133.892V15.0954H133.622C133.249 15.0954 132.539 15.0954 131.083 15.0954C131.083 15.0954 131.083 15.0954 131.083 19.1816C131.083 19.1816 131.083 19.1816 132.302 19.1816H133.892V22.7275H132.979C132.505 22.7275 131.896 22.7275 131.083 22.7275C131.083 22.7275 131.083 22.7275 131.083 27.1852C131.083 27.354 131.083 27.354 131.287 27.354C131.287 27.354 131.287 27.354 132.573 27.354H133.892V31.2713H133.52C132.843 31.2713 131.557 31.2713 128.951 31.2713C127.496 31.2713 126.785 30.5622 126.785 28.975V15.0954C126.785 15.0954 126.785 15.0954 124.958 15.0954C124.958 15.0954 124.958 15.0954 124.958 11.3469Z" fill="white" fill-opacity="0.4"/>
<path fill-rule="evenodd" clip-rule="evenodd" d="M133.892 11.3469H133.959C137.953 11.3469 140.288 13.5082 140.288 16.7164C140.288 18.6413 139.374 19.8908 138.494 20.8026C140.119 21.5118 141.168 23.2678 141.168 25.2265C141.168 28.975 138.291 31.2713 134.162 31.2713C134.162 31.2713 134.162 31.2713 134.095 31.2713H133.892V27.354H134.332C135.787 27.354 136.667 26.476 136.667 25.0576C136.667 23.6393 135.787 22.7275 134.332 22.7275C134.332 22.7275 134.332 22.7275 133.925 22.7275H133.892V19.1816H133.959C135.245 19.1816 135.956 18.3036 135.956 17.0541C135.956 15.8046 135.245 15.0954 133.959 15.0954C133.959 15.0954 133.959 15.0954 133.925 15.0954H133.892V11.3469Z" fill="white" fill-opacity="0.4"/>
<path fill-rule="evenodd" clip-rule="evenodd" d="M149.458 11.3469C149.458 11.3469 149.458 11.3469 151.286 11.3469H151.624V17.0541C151.455 17.4256 151.252 17.9321 151.252 18.4724C151.252 18.4724 151.252 18.4724 149.831 22.5586C149.831 22.5586 149.831 22.5586 151.354 22.5586H151.624V26.3071H150.643C150.101 26.3071 149.458 26.3071 148.748 26.3071C148.748 26.3071 148.748 26.3071 147.496 29.5153C147.123 30.731 146.413 31.2713 144.957 31.2713C144.957 31.2713 144.957 31.2713 142.25 31.2713C142.25 31.2713 142.25 31.2713 142.25 27.354C142.25 27.354 142.25 27.354 143.164 27.354C143.536 27.354 143.536 27.354 143.705 27.1852C143.705 27.1852 143.705 27.1852 149.458 11.3469Z" fill="white" fill-opacity="0.4"/>
<path fill-rule="evenodd" clip-rule="evenodd" d="M151.623 11.3469H153.789C153.789 11.3469 153.789 11.3469 159.542 27.1852C159.711 27.354 159.711 27.354 160.084 27.354C160.084 27.354 160.084 27.354 160.794 27.354C160.794 27.354 160.794 27.354 160.794 31.2713C160.794 31.2713 160.794 31.2713 158.29 31.2713C156.835 31.2713 156.124 30.731 155.752 29.3127C155.752 29.3127 155.752 29.3127 154.5 26.3071C154.5 26.3071 154.5 26.3071 152.063 26.3071H151.623V22.5586H153.417C153.417 22.5586 153.417 22.5586 151.995 18.4724C151.995 17.9321 151.792 17.4256 151.623 17.0541V11.3469Z" fill="white" fill-opacity="0.4"/>
<path fill-rule="evenodd" clip-rule="evenodd" d="M82.2871 36.9447C82.2871 36.9447 82.2871 36.9447 97.9545 36.9447C99.4095 36.9447 100.289 37.6876 100.289 39.2748C100.289 39.2748 100.289 39.2748 100.289 52.7829C100.289 52.9518 100.289 52.9518 100.492 52.9518C100.492 52.9518 100.492 52.9518 101.914 52.9518C101.914 52.9518 101.914 52.9518 101.914 56.8691C101.914 56.8691 101.914 56.8691 98.1575 56.8691C96.5332 56.8691 95.7888 56.16 95.7888 54.5728C95.7888 54.5728 95.7888 54.5728 95.7888 40.8958C95.7888 40.8958 95.7888 40.6932 95.6196 40.6932C95.6196 40.6932 95.6196 40.6932 88.4119 40.6932C88.4119 40.6932 88.4119 40.6932 88.4119 56.8691C88.4119 56.8691 88.4119 56.8691 84.0806 56.8691C84.0806 56.8691 84.0806 56.8691 84.0806 40.6932C84.0806 40.6932 84.0806 40.6932 82.2871 40.6932C82.2871 40.6932 82.2871 40.6932 82.2871 36.9447Z" fill="white" fill-opacity="0.4"/>
<path fill-rule="evenodd" clip-rule="evenodd" d="M113.284 36.6068H113.352V40.7268L113.284 40.693C110.002 40.693 107.498 43.3609 107.498 46.7379C107.498 50.2837 110.002 53.1542 113.284 53.1542L113.352 53.1204V57.2066L113.284 57.2404C107.498 57.2404 102.997 52.6139 102.997 46.7379C102.997 41.0645 107.498 36.6068 113.284 36.6068Z" fill="white" fill-opacity="0.4"/>
<path fill-rule="evenodd" clip-rule="evenodd" d="M113.352 36.6068L115.416 36.8094C120.255 37.7212 123.706 41.7737 123.706 46.7379C123.706 51.8709 120.255 56.0584 115.416 57.004L113.352 57.2066V53.1204L115.653 52.6477C117.784 51.6683 119.206 49.4057 119.206 46.7379C119.206 44.2051 117.784 42.0776 115.653 41.1658L113.352 40.7268V36.6068Z" fill="white" fill-opacity="0.4"/>
<path fill-rule="evenodd" clip-rule="evenodd" d="M124.62 36.9447C124.62 36.9447 124.62 36.9447 128.579 36.9447C130.034 36.9447 130.745 37.6876 130.745 39.2748C130.745 39.2748 130.745 39.2748 130.745 52.7829C130.745 52.9518 130.745 52.9518 130.914 52.9518C130.914 52.9518 130.914 52.9518 136.125 52.9518C136.125 52.9518 136.125 52.9518 136.125 36.9447C136.125 36.9447 136.125 36.9447 140.457 36.9447C140.457 36.9447 140.457 36.9447 140.457 52.9518C140.457 52.9518 140.457 52.9518 145.702 52.9518C145.871 52.9518 145.871 52.9518 145.871 52.7829C145.871 52.7829 145.871 52.7829 145.871 39.2748C145.871 37.6876 146.582 36.9447 148.037 36.9447C148.037 36.9447 148.037 36.9447 151.996 36.9447C151.996 36.9447 151.996 36.9447 151.996 40.6932C151.996 40.6932 151.996 40.6932 150.371 40.6932C150.168 40.6932 150.168 40.8958 150.168 40.8958C150.168 40.8958 150.168 40.8958 150.168 54.5728C150.168 56.16 149.458 56.8691 148.037 56.8691C148.037 56.8691 148.037 56.8691 128.748 56.8691C127.124 56.8691 126.414 56.16 126.414 54.5728C126.414 54.5728 126.414 54.5728 126.414 40.8958C126.414 40.8958 126.414 40.6932 126.244 40.6932C126.244 40.6932 126.244 40.6932 124.62 40.6932C124.62 40.6932 124.62 40.6932 124.62 36.9447Z" fill="white" fill-opacity="0.4"/>
<path fill-rule="evenodd" clip-rule="evenodd" d="M155.413 36.9447C155.413 36.9447 155.413 36.9447 168.915 36.9447C170.539 36.9447 171.081 37.6876 171.081 39.106C171.081 39.106 171.081 39.106 171.081 42.483H167.122C167.122 42.483 167.122 42.483 167.122 40.8958C167.122 40.6932 167.122 40.6932 166.919 40.6932C166.919 40.6932 166.919 40.6932 164.415 40.6932C164.415 40.6932 164.415 40.6932 164.415 56.8691C164.415 56.8691 164.415 56.8691 160.083 56.8691C160.083 56.8691 160.083 56.8691 160.083 40.6932C160.083 40.6932 160.083 40.6932 157.579 40.6932C157.376 40.6932 157.376 40.6932 157.376 40.8958C157.376 40.8958 157.376 40.8958 157.376 42.483C157.376 42.483 157.376 42.483 153.417 42.483C153.417 42.483 153.417 42.483 153.417 39.106C153.417 37.6876 153.958 36.9447 155.413 36.9447Z" fill="white" fill-opacity="0.4"/>
<path fill-rule="evenodd" clip-rule="evenodd" d="M176.664 36.9447C176.664 36.9447 176.664 36.9447 178.492 36.9447H178.83V42.6519C178.627 43.0233 178.458 43.5299 178.458 44.0702C178.458 44.0702 178.458 44.0702 177.003 48.1564C177.003 48.1564 177.003 48.1564 178.526 48.1564H178.83V51.9049H177.849C177.274 51.9049 176.664 51.9049 175.92 51.9049C175.92 51.9049 175.92 51.9049 174.668 54.9105C174.329 56.3288 173.585 56.8691 172.163 56.8691C172.163 56.8691 172.163 56.8691 169.456 56.8691C169.456 56.8691 169.456 56.8691 169.456 52.9518C169.456 52.9518 169.456 52.9518 170.37 52.9518C170.708 52.9518 170.708 52.9518 170.911 52.7829C170.911 52.7829 170.911 52.7829 176.664 36.9785V36.9447Z" fill="white" fill-opacity="0.4"/>
<path fill-rule="evenodd" clip-rule="evenodd" d="M178.83 36.9447H180.962C180.962 36.9447 180.962 36.9447 186.749 52.7829C186.918 52.9518 186.918 52.9518 187.291 52.9518H188.001C188.001 52.9518 188.001 52.9518 188.001 56.8691C188.001 56.8691 188.001 56.8691 185.497 56.8691C184.042 56.8691 183.331 56.3288 182.959 54.9105C182.959 54.9105 182.959 54.9105 181.707 51.9049C181.707 51.9049 181.707 51.9049 179.27 51.9049H178.83V48.1564H180.624C180.624 48.1564 180.624 48.1564 179.169 44.0702C179.169 43.5299 178.999 43.0233 178.83 42.6519V36.9447Z" fill="white" fill-opacity="0.4"/>
<path fill-rule="evenodd" clip-rule="evenodd" d="M54.5396 19.8231C54.7426 19.7556 55.0133 19.8907 55.284 20.2621C55.284 20.2621 55.284 20.2621 67.5337 32.1493C68.2443 32.8584 68.2443 33.9391 67.5337 34.4794C67.5337 34.4794 67.5337 34.4794 55.284 46.5691C55.0133 46.9068 54.7426 47.0081 54.5396 46.9068C54.3365 46.8055 54.2012 46.4678 54.2012 46.0288V20.5998C54.2012 20.1608 54.3365 19.8907 54.5396 19.8231Z" fill="white" fill-opacity="0.4"/>
<path fill-rule="evenodd" clip-rule="evenodd" d="M33.5931 0H34.4729L35.285 0.337702C35.285 0.337702 35.285 0.337702 47.9069 12.7989C48.4483 13.5081 48.2453 14.0146 47.3655 14.0146C47.3655 14.0146 47.3655 14.0146 42.1205 14.0146C41.2407 14.0146 40.4962 14.7576 40.4962 15.6356C40.4962 15.6356 40.4962 15.6356 40.4962 24.8886C40.4962 25.7667 39.7856 26.4758 38.7028 26.4758C38.7028 26.4758 38.7028 26.4758 29.5325 26.4758C28.6188 26.4758 27.9082 25.7667 27.9082 24.8886C27.9082 24.8886 27.9082 24.8886 27.9082 15.6356C27.9082 14.7576 27.1976 14.0146 26.2839 14.0146H20.7005C19.7869 14.0146 19.6177 13.5081 20.1591 12.7989C20.1591 12.7989 20.1591 12.7989 32.781 0.337702L33.5931 0Z" fill="white" fill-opacity="0.4"/>
<path fill-rule="evenodd" clip-rule="evenodd" d="M13.8655 19.553C14.0685 19.6881 14.2038 19.992 14.2038 20.431V46.3665C14.2038 46.8393 14.0685 47.1095 13.8655 47.177C13.6286 47.2783 13.324 47.177 12.9518 46.9068C12.9518 46.9068 12.9518 46.9068 0.532961 34.4794C-0.177654 33.9391 -0.177654 32.8584 0.532961 32.1493C0.532961 32.1493 0.532961 32.1493 12.9518 19.8907C13.324 19.553 13.6286 19.4517 13.8655 19.553Z" fill="white" fill-opacity="0.4"/>
<path fill-rule="evenodd" clip-rule="evenodd" d="M29.5325 39.9839C29.5325 39.9839 29.5325 39.9839 38.7028 39.9839C39.7857 39.9839 40.5301 40.6931 40.5301 41.6049C40.5301 41.6049 40.5301 41.6049 40.5301 51.3644C40.5301 52.4451 41.2407 53.1543 42.1206 53.1543H46.9933C47.907 53.1543 48.2454 53.6608 47.5348 54.2011C47.5348 54.2011 47.5348 54.2011 35.2851 66.4597C34.9129 66.8312 34.473 67.0001 34.0331 67.0001C33.5932 67.0001 33.1194 66.8312 32.781 66.4597C32.781 66.4597 32.781 66.4597 20.5314 54.2011C19.7869 53.6608 20.1592 53.1543 21.039 53.1543C21.039 53.1543 21.039 53.1543 26.284 53.1543C27.1976 53.1543 27.9083 52.4451 27.9083 51.3644C27.9083 51.3644 27.9083 51.3644 27.9083 41.6049C27.9083 40.6931 28.6189 39.9839 29.5325 39.9839Z" fill="white" fill-opacity="0.4"/>
</svg>
