<svg width="114" height="114" viewBox="0 0 114 114" fill="none" xmlns="http://www.w3.org/2000/svg">
  <path d="M113.65 77.2259C113.65 87.2219 107.369 96.3195 97.1153 102.935C86.8649 109.548 72.6829 113.65 57 113.65C41.3171 113.65 27.1351 109.548 16.8847 102.935C6.63057 96.3195 0.35 87.2219 0.35 77.2259C0.35 67.2298 6.63057 58.1322 16.8847 51.5167C27.1351 44.9035 41.3171 40.8017 57 40.8017C72.6829 40.8017 86.8649 44.9035 97.1153 51.5167C107.369 58.1322 113.65 67.2298 113.65 77.2259Z" stroke="white" stroke-width="0.7" />
  <path d="M113.65 38.6129C113.65 41.7922 112.115 44.8521 109.274 47.6686C106.432 50.4864 102.302 53.0402 97.1697 55.1923C86.9071 59.496 72.7052 62.1662 57 62.1662C41.2948 62.1662 27.0929 59.496 16.8303 55.1923C11.6982 53.0402 7.56786 50.4864 4.72577 47.6686C1.88498 44.8521 0.35 41.7922 0.35 38.6129C0.35 35.4337 1.88498 32.3738 4.72577 29.5573C7.56786 26.7394 11.6982 24.1857 16.8303 22.0336C27.0929 17.7299 41.2948 15.0597 57 15.0597C72.7052 15.0597 86.9071 17.7299 97.1697 22.0336C102.302 24.1857 106.432 26.7394 109.274 29.5573C112.115 32.3738 113.65 35.4337 113.65 38.6129Z" stroke="white" stroke-opacity="0.5" stroke-width="0.7" />
  <path d="M113.65 11.6452C113.65 12.3246 113.315 13.0256 112.595 13.7444C111.874 14.464 110.792 15.175 109.368 15.8628C106.522 17.2377 102.381 18.4853 97.235 19.5366C86.9493 21.638 72.7239 22.9403 57 22.9403C41.2761 22.9403 27.0507 21.638 16.765 19.5366C11.6192 18.4853 7.47795 17.2377 4.63157 15.8628C3.2076 15.175 2.12613 14.464 1.40533 13.7444C0.68542 13.0256 0.35 12.3246 0.35 11.6452C0.35 10.9658 0.68542 10.2647 1.40533 9.54594C2.12613 8.8263 3.2076 8.11531 4.63157 7.4275C7.47795 6.05263 11.6192 4.80498 16.765 3.75371C27.0507 1.65233 41.2761 0.35 57 0.35C72.7239 0.35 86.9493 1.65233 97.235 3.75371C102.381 4.80498 106.522 6.05263 109.368 7.4275C110.792 8.11531 111.874 8.8263 112.595 9.54594C113.315 10.2647 113.65 10.9658 113.65 11.6452Z" stroke="white" stroke-opacity="0.2" stroke-width="0.7" />
</svg>