<svg width="115" height="115" viewBox="0 0 115 115" fill="none" xmlns="http://www.w3.org/2000/svg">
  <path d="M45.9037 68.9254C30.5263 53.548 17.9015 38.3437 9.91971 26.1975C5.92722 20.122 3.10693 14.8273 1.68015 10.6681C0.966509 8.58776 0.60825 6.81052 0.616169 5.37207C0.624084 3.93514 0.9961 2.8708 1.70517 2.16173C2.41424 1.45266 3.47858 1.08064 4.91552 1.07273C6.35396 1.06481 8.1312 1.42307 10.2115 2.13671C14.3708 3.56349 19.6654 6.38378 25.741 10.3763C37.8871 18.358 53.0914 30.9828 68.4688 46.3602C83.8462 61.7376 96.471 76.9419 104.453 89.0881C108.445 95.1636 111.266 100.458 112.692 104.617C113.406 106.698 113.764 108.475 113.756 109.914C113.748 111.35 113.376 112.415 112.667 113.124C111.958 113.833 110.894 114.205 109.457 114.213C108.018 114.221 106.241 113.863 104.161 113.149C100.002 111.722 94.707 108.902 88.6315 104.909C76.4853 96.9276 61.2811 84.3028 45.9037 68.9254Z" stroke="white" stroke-width="0.7" />
  <path d="M45.9033 46.36C61.2807 30.9826 76.4849 18.3578 88.6311 10.376C94.7066 6.38352 100.001 3.56323 104.161 2.13645C106.241 1.42281 108.018 1.06455 109.457 1.07247C110.893 1.08038 111.958 1.4524 112.667 2.16147C113.376 2.87054 113.748 3.93488 113.756 5.37182C113.764 6.81026 113.406 8.5875 112.692 10.6678C111.265 14.8271 108.445 20.1217 104.452 26.1973C96.4706 38.3434 83.8458 53.5477 68.4684 68.9251C53.091 84.3025 37.8867 96.9273 25.7405 104.909C19.665 108.902 14.3703 111.722 10.2111 113.149C8.13077 113.862 6.35354 114.221 4.9151 114.213C3.47816 114.205 2.41382 113.833 1.70474 113.124C0.995672 112.415 0.623665 111.35 0.61575 109.913C0.607826 108.475 0.966083 106.698 1.67973 104.617C3.1065 100.458 5.9268 95.1633 9.9193 89.0878C17.9011 76.9416 30.5258 61.7374 45.9033 46.36Z" stroke="white" stroke-opacity="0.4" stroke-width="0.7" />
</svg>