<?xml version="1.0" encoding="utf-8"?>
<!-- Generator: Adobe Illustrator 25.4.1, SVG Export Plug-In . SVG Version: 6.00 Build 0)  -->
<svg version="1.1" id="Слой_1" xmlns="http://www.w3.org/2000/svg" xmlns:xlink="http://www.w3.org/1999/xlink" x="0px" y="0px"
	 viewBox="0 0 18 17" style="enable-background:new 0 0 18 17;" xml:space="preserve">
<style type="text/css">
	.st0{fill:#0D0D0D;}
</style>
<path class="st0" d="M9,16.8c-2.3,0-4.5-0.4-6.1-1.1C2.1,15.4,1.5,15,1,14.5c-0.5-0.5-0.7-0.9-0.7-1.4s0.2-1,0.7-1.4
	c0.4-0.4,1.1-0.8,1.9-1.2C4.5,9.9,6.7,9.5,9,9.5c2.3,0,4.5,0.4,6.1,1.1c0.8,0.3,1.4,0.7,1.9,1.2c0.5,0.4,0.7,0.9,0.7,1.4
	s-0.2,1-0.7,1.4c-0.4,0.4-1.1,0.8-1.9,1.2C13.5,16.4,11.3,16.8,9,16.8z M9,10.5c-2.2,0-4.2,0.4-5.7,1c-0.7,0.3-1.2,0.6-1.5,0.9
	c-0.3,0.3-0.4,0.5-0.4,0.7s0.1,0.5,0.4,0.7c0.3,0.3,0.9,0.7,1.5,0.9c1.5,0.6,3.5,1,5.7,1c2.2,0,4.2-0.4,5.7-1
	c0.7-0.3,1.2-0.6,1.5-0.9c0.3-0.3,0.4-0.5,0.4-0.7s-0.1-0.5-0.4-0.7c-0.3-0.3-0.9-0.7-1.5-0.9C13.2,10.8,11.2,10.5,9,10.5z"/>
<path class="st0" d="M9,12.2c-2.3,0-4.5-0.4-6.1-1.1C2.1,10.8,1.5,10.4,1,10C0.6,9.5,0.4,9.1,0.4,8.6s0.2-1,0.7-1.4
	C1.5,6.7,2.1,6.3,2.9,6C4.5,5.3,6.7,4.9,9,4.9c2.3,0,4.5,0.4,6.1,1.1c0.8,0.3,1.4,0.7,1.9,1.2c0.5,0.4,0.7,0.9,0.7,1.4
	s-0.2,1-0.7,1.4c-0.4,0.4-1.1,0.8-1.9,1.2C13.5,11.8,11.3,12.2,9,12.2z M9,5.9c-2.2,0-4.2,0.4-5.8,1C2.6,7.1,2,7.5,1.7,7.8
	C1.4,8.1,1.3,8.3,1.3,8.6s0.1,0.5,0.4,0.8c0.3,0.3,0.9,0.7,1.6,1c1.5,0.6,3.6,1,5.8,1c2.2,0,4.2-0.4,5.8-1c0.7-0.3,1.2-0.6,1.6-1
	c0.3-0.3,0.4-0.5,0.4-0.8s-0.1-0.5-0.4-0.8c-0.3-0.3-0.9-0.7-1.6-1C13.2,6.2,11.2,5.9,9,5.9z"/>
<ellipse class="st0" cx="9" cy="4.5" rx="8.6" ry="4.1"/>
</svg>
