<svg width="18" height="17" viewBox="0 0 18 17" fill="none" xmlns="http://www.w3.org/2000/svg">
<path d="M16.7727 13.1273C16.7727 13.4571 16.6161 13.8153 16.2413 14.1884C15.8646 14.5634 15.2941 14.9242 14.5492 15.2378C13.0613 15.8643 10.9711 16.2637 8.63636 16.2637C6.30159 16.2637 4.21141 15.8643 2.72356 15.2378C1.97862 14.9242 1.40816 14.5634 1.03144 14.1884C0.656626 13.8153 0.5 13.4571 0.5 13.1273C0.5 12.7975 0.656626 12.4394 1.03144 12.0662C1.40816 11.6912 1.97862 11.3305 2.72356 11.0169C4.21141 10.3904 6.30159 9.99097 8.63636 9.99097C10.9711 9.99097 13.0613 10.3904 14.5492 11.0169C15.2941 11.3305 15.8646 11.6912 16.2413 12.0662C16.6161 12.4394 16.7727 12.7975 16.7727 13.1273Z" fill="#0A84FF" stroke="#0D0D0D"/>
<path d="M16.8182 8.58192C16.8182 8.92739 16.6538 9.29647 16.2734 9.67522C15.8912 10.0557 15.3151 10.4192 14.5668 10.7343C13.0721 11.3636 10.9757 11.7637 8.63636 11.7637C6.29704 11.7637 4.20059 11.3636 2.70592 10.7343C1.95766 10.4192 1.38157 10.0557 0.999372 9.67522C0.618902 9.29647 0.454545 8.92739 0.454545 8.58192C0.454545 8.23645 0.618902 7.86737 0.999372 7.48862C1.38157 7.10815 1.95766 6.7446 2.70592 6.42955C4.20059 5.80021 6.29704 5.4001 8.63636 5.4001C10.9757 5.4001 13.0721 5.80021 14.5668 6.42955C15.3151 6.7446 15.8912 7.10815 16.2734 7.48862C16.6538 7.86737 16.8182 8.23645 16.8182 8.58192Z" fill="#0A84FF" stroke="#0D0D0D" stroke-width="0.909091"/>
<ellipse cx="8.63636" cy="4.49106" rx="8.63636" ry="4.09091" fill="#0D0D0D"/>
</svg>
