<svg width="16" height="22" viewBox="0 0 16 22" fill="none" xmlns="http://www.w3.org/2000/svg">
<g clip-path="url(#clip0_81_2460)">
<path d="M8.40781 12.2171C8.18329 12.5601 8.0071 12.8755 7.78925 13.1548C7.12404 14.0089 6.4455 14.8517 5.76696 15.6944C5.25171 16.3343 4.83684 17.028 4.71646 17.8759C4.57942 18.8418 4.70021 19.7734 5.08884 20.6623C5.19339 20.9011 5.30877 21.1347 5.42332 21.3687C5.50705 21.5406 5.51288 21.7051 5.39416 21.86C5.27587 22.0139 5.10925 22.0271 4.95597 21.9677C2.65919 21.0749 0.911398 19.5878 0.192456 17.0077C-0.0337233 16.1953 -0.0208106 15.3614 0.0329226 14.5231C0.117063 13.2115 0.430298 11.973 1.01928 10.814C1.52787 9.81381 2.18475 8.92667 2.89411 8.07955C3.62055 7.21264 4.3674 6.36333 5.06302 5.47002C5.62701 4.74606 6.02855 3.92005 6.18475 2.97881C6.32304 2.14489 6.21474 1.3312 6.03146 0.521025C5.94233 0.126495 6.12768 -0.0692308 6.50298 0.0213748C8.05292 0.396992 9.33918 1.20584 10.2822 2.58208C10.7537 3.26998 10.9658 4.04805 10.9928 4.88417C11.0195 5.70446 11.0132 6.52606 11.0428 7.34591C11.0545 7.67227 11.1003 8.00258 11.1719 8.32014C11.2569 8.69664 11.4494 8.81275 11.8184 8.77889C12.4053 8.72479 12.7135 8.34521 12.7402 7.61817C12.7498 7.35559 12.7256 7.09125 12.716 6.82823C12.709 6.62635 12.7398 6.44118 12.9464 6.36157C13.1542 6.28152 13.29 6.39895 13.4017 6.56697C13.4096 6.57884 13.4154 6.59248 13.4229 6.60479C14.7171 8.63418 15.5452 10.8553 15.8551 13.2819C15.9738 14.2108 16.0496 15.1463 15.9596 16.0867C15.8297 17.4454 15.2982 18.6144 14.4488 19.6282C13.5904 20.6531 12.5294 21.3687 11.3252 21.8573C11.2865 21.8732 11.2469 21.8863 11.2069 21.8973C11.0424 21.9418 10.8991 21.9009 10.8029 21.7513C10.7029 21.5961 10.7437 21.439 10.8466 21.3049C10.9862 21.1228 11.1465 20.9579 11.2802 20.7714C11.8884 19.9212 12.1379 18.9782 11.9134 17.9213C11.8276 17.517 11.6206 17.1775 11.3515 16.8859C11.0999 16.6132 10.8408 16.3453 10.5634 16.103C9.41083 15.0949 8.57359 13.8911 8.40781 12.2171Z" fill="#0D0D0D"/>
</g>
<defs>
<clipPath id="clip0_81_2460">
<rect width="16" height="22" fill="white"/>
</clipPath>
</defs>
</svg>
