<svg width="30" height="30" viewBox="0 0 30 30" fill="none" xmlns="http://www.w3.org/2000/svg">
<path d="M15 19C17.2091 19 19 17.2091 19 15C19 12.7909 17.2091 11 15 11C12.7909 11 11 12.7909 11 15C11 17.2091 12.7909 19 15 19Z" fill="#E5E5E5"/>
<path d="M19.999 3H9.999C6.14 3 3 6.141 3 10.001V20.001C3 23.86 6.141 27 10.001 27H20.001C23.86 27 27 23.859 27 19.999V9.999C27 6.14 23.859 3 19.999 3ZM15 21C11.691 21 9 18.309 9 15C9 11.691 11.691 9 15 9C18.309 9 21 11.691 21 15C21 18.309 18.309 21 15 21ZM22 9C21.448 9 21 8.552 21 8C21 7.448 21.448 7 22 7C22.552 7 23 7.448 23 8C23 8.552 22.552 9 22 9Z" fill="#E5E5E5"/>
</svg>
