<svg width="200" height="40" viewBox="0 0 200 40" fill="none" xmlns="http://www.w3.org/2000/svg">
<path d="M19.9002 39.8003C8.9274 39.8003 0 30.8729 0 19.9002C0 8.9274 8.9274 0 19.9002 0C30.8729 0 39.8003 8.9274 39.8003 19.9002C39.8003 30.8729 30.8729 39.8003 19.9002 39.8003ZM19.9002 2.15518C10.1155 2.15518 2.15518 10.1155 2.15518 19.9002C2.15518 29.6848 10.1155 37.6451 19.9002 37.6451C29.6848 37.6451 37.6451 29.6848 37.6451 19.9002C37.6451 10.1155 29.6848 2.15518 19.9002 2.15518Z" fill="white"/>
<path d="M20.4602 31.2839L15.6278 16.2746L13.6367 22.5519H7.93848V20.1271H11.8623L15.6093 8.30713L20.5772 23.7372L24.3998 13.0197L27.8843 20.043H31.8595V22.4677H26.3809L24.7649 19.2129L20.4602 31.2839Z" fill="white"/>
<path d="M65.6832 27.2168H63.3369V16.8499H63.2613L59.038 27.0928H57.258L53.0346 16.8499H52.9645V27.2168H50.6074V12.6104H53.6334L58.1102 23.6353H58.1911L62.668 12.6104H65.6832V27.2168Z" fill="white"/>
<path d="M77.8082 27.2168L76.5622 23.4412H71.1846L69.9386 27.2168H67.2471L72.4305 12.6104H75.3756L80.559 27.2168H77.8082ZM73.8383 15.1886L71.7941 21.4239H75.9419L73.9084 15.1886H73.8383Z" fill="white"/>
<path d="M81.3311 23.1068H83.8608C83.9417 23.7756 84.2869 24.315 84.891 24.7195C85.5005 25.1295 86.2502 25.3344 87.151 25.3344C88.0302 25.3344 88.7476 25.1403 89.3031 24.7465C89.8587 24.3528 90.1392 23.8565 90.1392 23.247C90.1392 22.7184 89.9342 22.2923 89.5297 21.9687C89.1251 21.6397 88.4617 21.37 87.5447 21.1542L85.6515 20.7065C84.3084 20.3937 83.3106 19.9136 82.6579 19.261C82.0053 18.6083 81.6816 17.7561 81.6816 16.7097C81.6816 15.4206 82.1887 14.3742 83.2027 13.5705C84.2168 12.7668 85.5221 12.3677 87.1186 12.3677C88.726 12.3677 90.0205 12.7668 91.0022 13.5597C91.9839 14.3526 92.4909 15.3936 92.5232 16.6827H90.0313C89.972 16.0031 89.6753 15.4637 89.1521 15.0808C88.6235 14.6924 87.9385 14.4982 87.0971 14.4982C86.2718 14.4982 85.6084 14.6816 85.0959 15.0538C84.5889 15.426 84.33 15.9168 84.33 16.5209C84.33 17.0064 84.5296 17.4001 84.9233 17.7076C85.3171 18.0096 85.9644 18.2685 86.8597 18.4897L88.5426 18.8726C90.0205 19.2124 91.0939 19.7033 91.7627 20.3505C92.4315 20.9978 92.766 21.8662 92.766 22.9504C92.766 24.3366 92.2482 25.4315 91.2125 26.246C90.1769 27.0605 88.7745 27.465 87.0054 27.465C85.3171 27.465 83.9632 27.0766 82.9384 26.2945C81.9244 25.5124 81.385 24.4498 81.3311 23.1068Z" fill="white"/>
<path d="M101.498 27.2168H98.8877V12.6104H108.203V14.8164H101.504V19.1315H107.626V21.2567H101.504V27.2168H101.498Z" fill="white"/>
<path d="M118.031 25.9331C117.092 26.9309 115.83 27.4272 114.244 27.4272C112.658 27.4272 111.396 26.9309 110.458 25.9331C109.519 24.9352 109.05 23.576 109.05 21.85C109.05 20.1293 109.524 18.7647 110.468 17.7668C111.412 16.7636 112.669 16.262 114.244 16.262C115.824 16.262 117.081 16.7636 118.025 17.7668C118.969 18.7701 119.438 20.1293 119.438 21.85C119.438 23.576 118.969 24.9406 118.031 25.9331ZM112.318 24.4929C112.793 25.1186 113.43 25.4369 114.244 25.4369C115.059 25.4369 115.695 25.124 116.17 24.4929C116.644 23.8619 116.876 22.9827 116.876 21.85C116.876 20.7227 116.639 19.8435 116.17 19.2124C115.7 18.5813 115.059 18.2685 114.244 18.2685C113.44 18.2685 112.804 18.5813 112.324 19.2124C111.849 19.8435 111.612 20.7227 111.612 21.85C111.612 22.9827 111.849 23.8673 112.318 24.4929Z" fill="white"/>
<path d="M130.571 16.4832V27.2115H128.144V25.3506H128.095C127.502 26.7206 126.407 27.4057 124.816 27.4057C123.651 27.4057 122.723 27.0497 122.038 26.3377C121.353 25.6257 121.008 24.6494 121.008 23.4196V16.4832H123.527V22.9126C123.527 23.6839 123.71 24.2718 124.077 24.6764C124.444 25.0809 124.983 25.2859 125.69 25.2859C126.412 25.2859 126.984 25.0485 127.41 24.5793C127.836 24.1046 128.047 23.4789 128.047 22.6968V16.4939H130.571V16.4832Z" fill="white"/>
<path d="M132.626 27.2167V16.483H135.048V18.3277H135.096C135.393 17.6804 135.825 17.1788 136.396 16.8174C136.968 16.4614 137.658 16.2834 138.467 16.2834C139.643 16.2834 140.555 16.6394 141.208 17.346C141.86 18.0526 142.184 19.0343 142.184 20.2803V27.2167H139.665V20.7873C139.665 20.016 139.487 19.428 139.126 19.0235C138.764 18.619 138.23 18.414 137.518 18.414C136.795 18.414 136.218 18.6513 135.792 19.1206C135.366 19.5953 135.15 20.2155 135.15 20.9923V27.2059H132.626V27.2167Z" fill="white"/>
<path d="M148.209 27.3894C146.85 27.3894 145.771 26.8878 144.962 25.8899C144.153 24.8921 143.754 23.5436 143.754 21.8392C143.754 20.1455 144.158 18.7971 144.962 17.7992C145.771 16.8014 146.85 16.2997 148.209 16.2997C148.964 16.2997 149.633 16.4777 150.221 16.8337C150.804 17.1897 151.241 17.6752 151.532 18.2793H151.591V12.6104H154.11V27.2168H151.64V25.3829H151.597C151.3 25.9978 150.852 26.4833 150.253 26.8447C149.655 27.206 148.975 27.3894 148.209 27.3894ZM148.97 18.3764C148.161 18.3764 147.519 18.6892 147.044 19.3149C146.569 19.9406 146.338 20.782 146.338 21.85C146.338 22.9233 146.569 23.7702 147.039 24.3905C147.508 25.0108 148.15 25.3236 148.97 25.3236C149.768 25.3236 150.404 25.0108 150.885 24.3797C151.365 23.754 151.602 22.9072 151.602 21.85C151.602 20.7982 151.365 19.9567 150.885 19.3257C150.399 18.6946 149.763 18.3764 148.97 18.3764Z" fill="white"/>
<path d="M159.385 27.3894C158.338 27.3894 157.481 27.0874 156.806 26.4887C156.132 25.8899 155.798 25.1078 155.798 24.1477C155.798 23.1984 156.148 22.4433 156.855 21.8877C157.562 21.3322 158.565 21.0193 159.876 20.9384L162.707 20.7766V20.0053C162.707 19.4443 162.529 19.0074 162.173 18.7C161.817 18.3871 161.327 18.2361 160.701 18.2361C160.113 18.2361 159.633 18.3656 159.261 18.6299C158.889 18.8941 158.662 19.2501 158.581 19.7032H156.24C156.294 18.6838 156.731 17.8531 157.551 17.2167C158.371 16.5802 159.449 16.262 160.798 16.262C162.125 16.262 163.193 16.5856 163.991 17.2329C164.789 17.8801 165.189 18.7431 165.189 19.8219V27.2114H162.761V25.5016H162.713C162.411 26.0733 161.952 26.5318 161.337 26.8716C160.733 27.2168 160.081 27.3894 159.385 27.3894ZM160.145 25.4854C160.868 25.4854 161.478 25.2697 161.974 24.8435C162.47 24.4174 162.718 23.878 162.718 23.2416V22.4217L160.237 22.5727C159.627 22.6159 159.158 22.7615 158.824 23.0204C158.489 23.2793 158.322 23.6245 158.322 24.0506C158.322 24.4875 158.489 24.8381 158.824 25.097C159.158 25.356 159.595 25.4854 160.145 25.4854Z" fill="white"/>
<path d="M167.928 13.9749H170.447V16.483H172.47V18.4248H170.447V24.002C170.447 24.4389 170.55 24.7625 170.76 24.9729C170.97 25.1832 171.294 25.2857 171.742 25.2857C172.038 25.2857 172.276 25.2695 172.459 25.2372V27.1628C172.157 27.2329 171.72 27.2652 171.154 27.2652C169.994 27.2652 169.164 27.0441 168.667 26.5964C168.171 26.1487 167.923 25.4044 167.923 24.358V18.4248H166.386V16.483H167.923V13.9749H167.928Z" fill="white"/>
<path d="M176.499 14.6761C176.224 14.9404 175.895 15.0753 175.501 15.0753C175.108 15.0753 174.779 14.9404 174.509 14.6761C174.239 14.4118 174.104 14.0882 174.104 13.7106C174.104 13.3277 174.239 12.9986 174.509 12.7343C174.779 12.47 175.108 12.3352 175.501 12.3352C175.895 12.3352 176.224 12.47 176.499 12.7343C176.774 12.9986 176.909 13.3277 176.909 13.7106C176.909 14.0882 176.769 14.4118 176.499 14.6761ZM174.245 27.2168V16.4831H176.764V27.2114H174.245V27.2168Z" fill="white"/>
<path d="M187.416 25.9331C186.478 26.9309 185.216 27.4272 183.63 27.4272C182.044 27.4272 180.782 26.9309 179.843 25.9331C178.905 24.9352 178.436 23.576 178.436 21.85C178.436 20.1293 178.91 18.7647 179.854 17.7668C180.798 16.7636 182.055 16.262 183.63 16.262C185.21 16.262 186.467 16.7636 187.411 17.7668C188.355 18.7701 188.824 20.1293 188.824 21.85C188.824 23.576 188.355 24.9406 187.416 25.9331ZM181.704 24.4929C182.179 25.1186 182.815 25.4369 183.63 25.4369C184.444 25.4369 185.081 25.124 185.555 24.4929C186.03 23.8619 186.262 22.9827 186.262 21.85C186.262 20.7227 186.025 19.8435 185.555 19.2124C185.086 18.5813 184.444 18.2685 183.63 18.2685C182.826 18.2685 182.19 18.5813 181.71 19.2124C181.235 19.8435 180.998 20.7227 180.998 21.85C180.998 22.9827 181.235 23.8673 181.704 24.4929Z" fill="white"/>
<path d="M190.442 27.2167V16.483H192.864V18.3277H192.913C193.209 17.6804 193.641 17.1788 194.213 16.8174C194.784 16.4614 195.475 16.2834 196.284 16.2834C197.46 16.2834 198.371 16.6394 199.024 17.346C199.677 18.0526 200 19.0343 200 20.2803V27.2167H197.481V20.7873C197.481 20.016 197.303 19.428 196.942 19.0235C196.581 18.619 196.047 18.414 195.335 18.414C194.612 18.414 194.035 18.6513 193.609 19.1206C193.182 19.5953 192.967 20.2155 192.967 20.9923V27.2059H190.442V27.2167Z" fill="white"/>
</svg>
