<svg xmlns="http://www.w3.org/2000/svg" aria-hidden="true">
  <defs>
    <symbol id="logo" viewBox="0 0 160 32">
      <path d="M15.92 31.84C7.142 31.84 0 24.698 0 15.92S7.142 0 15.92 0c8.778 0 15.92 7.142 15.92 15.92s-7.142 15.92-15.92 15.92zm0-30.116c-7.828 0-14.196 6.368-14.196 14.196S8.092 30.116 15.92 30.116c7.828 0 14.196-6.368 14.196-14.196S23.748 1.724 15.92 1.724z"/>
      <path d="M16.368 25.027 12.502 13.02l-1.593 5.022H6.35v-1.94h3.139l2.998-9.456 3.974 12.344 3.058-8.574 2.788 5.619h3.18v1.94h-4.383l-1.293-2.604-3.444 9.657zM52.547 21.773H50.67v-8.294h-.06l-3.379 8.194h-1.424l-3.379-8.194h-.056v8.294h-1.886V10.088h2.421l3.581 8.82h.065l3.582-8.82h2.412v11.685zM62.247 21.773l-.997-3.02h-4.302l-.997 3.02h-2.153l4.147-11.685h2.356l4.147 11.685h-2.201zm-3.176-9.622-1.635 4.988h3.318l-1.627-4.988h-.056zM65.065 18.485h2.024c.065.535.341.967.824 1.29.488.328 1.087.492 1.808.492.703 0 1.277-.155 1.722-.47s.669-.712.669-1.2c0-.423-.164-.764-.488-1.023-.324-.263-.854-.479-1.588-.652l-1.515-.358c-1.074-.25-1.873-.634-2.395-1.156s-.781-1.204-.781-2.041c0-1.031.406-1.868 1.217-2.511s1.856-.962 3.133-.962c1.286 0 2.322.319 3.107.954s1.191 1.467 1.217 2.498h-1.994c-.047-.544-.285-.975-.703-1.282-.423-.311-.971-.466-1.644-.466-.66 0-1.191.147-1.601.444-.406.298-.613.69-.613 1.174 0 .388.16.703.475.949.315.242.833.449 1.549.626l1.346.306c1.182.272 2.041.665 2.576 1.182s.803 1.213.803 2.08c0 1.109-.414 1.985-1.243 2.636s-1.95.975-3.366.975c-1.351 0-2.434-.311-3.254-.936-.811-.626-1.243-1.476-1.286-2.55zM81.198 21.773H79.11V10.088h7.452v1.765h-5.359v3.452h4.898v1.7h-4.898v4.768h-.005zM94.425 20.746c-.751.798-1.761 1.195-3.03 1.195s-2.278-.397-3.029-1.195c-.751-.798-1.126-1.886-1.126-3.266 0-1.377.379-2.468 1.134-3.267.755-.803 1.761-1.204 3.021-1.204 1.264 0 2.27.401 3.025 1.204s1.13 1.89 1.13 3.267c0 1.381-.375 2.472-1.126 3.266zm-4.571-1.152c.38.501.89.755 1.541.755s1.161-.25 1.541-.755c.379-.505.565-1.208.565-2.114 0-.902-.19-1.605-.565-2.11s-.889-.755-1.541-.755c-.643 0-1.152.25-1.536.755-.38.505-.57 1.208-.57 2.11 0 .906.19 1.614.565 2.114zM104.457 13.187v8.583h-1.942v-1.489h-.039c-.474 1.096-1.35 1.644-2.623 1.644-.932 0-1.674-.285-2.222-.854s-.824-1.351-.824-2.334v-5.549h2.015v5.144c0 .617.146 1.087.44 1.411s.725.488 1.29.488c.578 0 1.035-.19 1.376-.565.341-.38.51-.88.51-1.506v-4.962h2.019v-.009zM106.101 21.773v-8.587h1.938v1.476h.038a2.744 2.744 0 0 1 1.04-1.208c.458-.285 1.01-.427 1.657-.427.941 0 1.67.285 2.193.85s.781 1.351.781 2.347v5.549h-2.015v-5.144c0-.617-.142-1.087-.431-1.411s-.717-.488-1.286-.488c-.578 0-1.04.19-1.381.565-.341.38-.514.876-.514 1.497v4.971h-2.019v.009zM118.567 21.912c-1.087 0-1.95-.401-2.598-1.2s-.966-1.877-.966-3.241c0-1.355.323-2.434.966-3.232.647-.798 1.51-1.2 2.598-1.2.604 0 1.139.142 1.61.427.466.285.816.673 1.049 1.156h.047v-4.535h2.015v11.685h-1.976v-1.467h-.034c-.238.492-.596.88-1.075 1.169s-1.022.436-1.635.436zm.609-7.211c-.647 0-1.161.25-1.541.751s-.565 1.174-.565 2.028c0 .859.185 1.536.561 2.032s.889.746 1.545.746c.638 0 1.147-.25 1.532-.755.384-.501.574-1.178.574-2.024 0-.841-.19-1.515-.574-2.019-.389-.505-.898-.759-1.532-.759zM127.508 21.912c-.838 0-1.523-.242-2.063-.721s-.806-1.105-.806-1.873c0-.759.28-1.364.846-1.808s1.368-.695 2.417-.759l2.265-.129v-.617c0-.449-.142-.798-.427-1.044-.285-.25-.677-.371-1.178-.371-.47 0-.854.104-1.152.315s-.479.496-.544.859h-1.873c.043-.816.393-1.48 1.049-1.989s1.518-.764 2.598-.764c1.062 0 1.916.259 2.554.777s.958 1.208.958 2.071v5.912h-1.942v-1.368h-.038a2.673 2.673 0 0 1-1.101 1.096 3.1 3.1 0 0 1-1.562.414zm.608-1.524c.578 0 1.066-.173 1.463-.514s.595-.772.595-1.282v-.656l-1.985.121c-.488.035-.863.151-1.13.358s-.402.483-.402.824c0 .35.134.63.402.837s.617.311 1.057.311zM134.342 11.18h2.015v2.006h1.618v1.553h-1.618v4.462c0 .35.082.608.25.777s.427.25.786.25c.237 0 .427-.013.574-.039v1.54c-.242.056-.591.082-1.044.082-.928 0-1.592-.177-1.99-.535s-.595-.954-.595-1.791v-4.747h-1.23v-1.553h1.23v-2.006h.004zM141.199 11.741c-.22.211-.483.319-.798.319s-.578-.108-.794-.319-.324-.47-.324-.772c0-.306.108-.57.324-.781s.479-.319.794-.319c.315 0 .578.108.798.319s.328.475.328.781c0 .302-.112.561-.328.772zm-1.803 10.032v-8.587h2.015v8.583h-2.015v.004zM149.933 20.746c-.75.798-1.76 1.195-3.029 1.195s-2.278-.397-3.03-1.195c-.75-.798-1.126-1.886-1.126-3.266 0-1.377.379-2.468 1.134-3.267.755-.803 1.761-1.204 3.021-1.204 1.264 0 2.27.401 3.025 1.204s1.13 1.89 1.13 3.267c0 1.381-.375 2.472-1.126 3.266zm-4.57-1.152c.38.501.889.755 1.541.755s1.161-.25 1.54-.755c.38-.505.566-1.208.566-2.114 0-.902-.19-1.605-.566-2.11s-.889-.755-1.54-.755c-.643 0-1.152.25-1.536.755-.38.505-.57 1.208-.57 2.11 0 .906.19 1.614.565 2.114zM152.354 21.773v-8.587h1.938v1.476h.039a2.732 2.732 0 0 1 1.04-1.208c.457-.285 1.01-.427 1.657-.427.941 0 1.67.285 2.192.85s.781 1.351.781 2.347v5.549h-2.015v-5.144c0-.617-.142-1.087-.431-1.411s-.716-.488-1.286-.488c-.578 0-1.04.19-1.381.565-.342.38-.514.876-.514 1.497v4.971h-2.02v.009z"/>
    </symbol>
		
		<symbol id="donat__ico" viewBox="0 0 34 32">
      <path stroke-width="1.882" d="M31.572 24.71c0 .621-.295 1.295-1 1.997-.709.706-1.783 1.385-3.185 1.975-2.801 1.179-6.735 1.931-11.13 1.931s-8.329-.752-11.13-1.931c-1.402-.59-2.476-1.269-3.185-1.975-.706-.702-1-1.377-1-1.997s.295-1.295 1-1.997c.709-.706 1.783-1.385 3.185-1.975 2.801-1.179 6.735-1.931 11.13-1.931s8.329.752 11.13 1.931c1.402.59 2.476 1.269 3.185 1.975.706.703 1 1.377 1 1.997z"/>
      <path stroke-width="1.711" d="M31.658 16.154c0 .65-.309 1.345-1.026 2.058-.719.716-1.804 1.4-3.212 1.994-2.814 1.185-6.76 1.938-11.163 1.938s-8.35-.753-11.163-1.938c-1.409-.593-2.493-1.277-3.212-1.994-.716-.713-1.026-1.408-1.026-2.058s.309-1.345 1.026-2.058c.719-.716 1.804-1.401 3.212-1.994 2.813-1.185 6.76-1.938 11.163-1.938s8.35.753 11.163 1.938c1.409.593 2.493 1.277 3.212 1.994.716.713 1.026 1.408 1.026 2.058z"/>
      <path d="M32.513 8.454c0 4.253-7.278 7.701-16.257 7.701S-.001 12.707-.001 8.454 7.277.753 16.256.753s16.257 3.448 16.257 7.701z"/>
    </symbol>
    <symbol id="facebook__ico" viewBox="0 0 15 32">
      <path d="M15.36 10.362h-5.231V7.041c0-1.247.854-1.538 1.455-1.538h3.691V.02L10.191.001c-5.644 0-6.928 4.09-6.928 6.707v3.655H-.001v5.65h3.264v15.988h6.865V16.013h4.632l.599-5.65z"/>
    </symbol>
    <symbol id="instagram__ico" viewBox="0 0 32 32">
      <path d="M16 20.267a4.267 4.267 0 1 0 0-8.534 4.267 4.267 0 0 0 0 8.534z"/>
      <path d="M21.332 3.2H10.665c-4.116 0-7.466 3.35-7.466 7.468v10.667c0 4.116 3.35 7.466 7.468 7.466h10.667c4.116 0 7.466-3.35 7.466-7.468V10.666c0-4.116-3.35-7.466-7.468-7.466zM16 22.4c-3.53 0-6.4-2.87-6.4-6.4s2.87-6.4 6.4-6.4c3.53 0 6.4 2.87 6.4 6.4s-2.87 6.4-6.4 6.4zm7.467-12.8a1.067 1.067 0 1 1 0-2.135 1.067 1.067 0 0 1 0 2.135z"/>
    </symbol>
    <symbol id="send__ico" viewBox="0 0 32 32">
      <path d="M31.499.196c.393.286.554.667.482 1.143L27.41 28.768c-.06.345-.25.613-.571.804a1.1 1.1 0 0 1-.554.143c-.131 0-.274-.03-.429-.089l-8.089-3.304-4.321 5.268c-.214.274-.506.411-.875.411a.976.976 0 0 1-.393-.071c-.226-.083-.408-.223-.545-.42s-.205-.414-.205-.652v-6.232L26.857 5.715 7.768 22.233.714 19.34c-.44-.167-.679-.494-.714-.982-.024-.476.167-.827.571-1.054L30.285.161c.179-.107.369-.161.571-.161.238 0 .452.065.643.196z"/>
    </symbol>
    <symbol id="support__ico" viewBox="0 0 35 32">
      <path d="M24.989 0c-3.051 0-5.85 1.461-7.656 3.866C15.527 1.461 12.729 0 9.677 0 4.342 0-.001 4.467-.001 9.961c0 2.58.957 5.031 2.699 6.899L17.332 32l14.372-14.872c1.896-1.877 2.961-4.43 2.961-7.168 0-5.494-4.342-9.961-9.678-9.961z"/>
    </symbol>
    <symbol id="trident__symbol" viewBox="0 0 19 32">
      <path d="M9.684.08a4.739 4.739 0 0 0-1.201 3.154c.044 2.656.371 5.309.4 7.96.059 2.476-.687 4.8-1.594 7.069-.303.627-.629 1.239-.956 1.854l-.96-.193a1.592 1.592 0 0 1-1.257-1.872 1.6 1.6 0 0 1 1.563-1.282l.351.037-.782-6.496a9.924 9.924 0 0 0-3.962-7.077 10.013 10.013 0 0 0-1.201-.771v23.061h5.353a8.738 8.738 0 0 0 3.277 5.333c.399.274.735.635.976 1.057.24-.422.575-.783.976-1.057a8.75 8.75 0 0 0 3.277-5.333h5.353V2.463c-.419.228-.821.488-1.201.771a9.925 9.925 0 0 0-3.962 7.077l-.782 6.496.35-.037a1.602 1.602 0 0 1 1.563 1.282c.173.862-.391 1.7-1.257 1.872l-.96.193c-.327-.614-.655-1.227-.956-1.854-.908-2.267-1.654-4.591-1.595-7.069.029-2.659.356-5.309.4-7.96A4.75 4.75 0 0 0 9.697.08h-.012zM1.681 5.787a8.277 8.277 0 0 1 1.937 4.373l.64 5.357a3.197 3.197 0 0 0-1.676 2.053h-.907V5.789l.006-.002zm16.007 0v11.781h-.907a3.199 3.199 0 0 0-1.676-2.053l.64-5.357a8.314 8.314 0 0 1 1.937-4.373l.006.002zm-8.004 10.77a18.116 18.116 0 0 0 1.757 3.963 3.598 3.598 0 0 0-1.757 1.175 3.608 3.608 0 0 0-1.757-1.176 18.15 18.15 0 0 0 1.757-3.962zm-8.003 2.606h.907a3.206 3.206 0 0 0 2.241 2.27l.769.174a8.685 8.685 0 0 0-.319 2.332H1.677v-4.776l.003-.001zm15.102 0h.907v4.776h-3.602c0-.807-.113-1.59-.319-2.332l.769-.174a3.196 3.196 0 0 0 2.241-2.27l.003.001zm-9.62 2.81a1.99 1.99 0 0 1 1.719 1.965H6.881c0-.682.102-1.341.282-1.965zm5.04 0a7.08 7.08 0 0 1 .282 1.965h-2.001c0-1.004.748-1.829 1.719-1.965zm-5.138 3.559h1.819v3.351a7.21 7.21 0 0 1-1.819-3.351zm3.419 0h1.819a7.148 7.148 0 0 1-1.819 3.351v-3.351z"/>
    </symbol>
    <symbol id="youtube__ico" viewBox="0 0 32 32">
      <path d="M31.067 9.733c0-.267-.4-2.4-1.333-3.333-1.2-1.333-2.533-1.467-3.2-1.467h-.133c-4.133-.267-10.267-.267-10.4-.267 0 0-6.267 0-10.4.267h-.133c-.667 0-2 .133-3.2 1.467C1.335 7.467.935 9.6.935 9.867c0 .133-.267 2.533-.267 5.067v2.267c0 2.533.267 4.933.267 5.067 0 .267.4 2.4 1.333 3.333 1.067 1.2 2.4 1.333 3.2 1.467h.4c2.4.267 9.733.267 10 .267 0 0 6.267 0 10.4-.267h.133c.667-.133 2-.267 3.2-1.467.933-1.067 1.333-3.2 1.333-3.467 0-.133.267-2.533.267-5.067V14.8c.133-2.4-.133-4.933-.133-5.067zM21.2 16.267l-8 4.267c-.133 0-.133.133-.267.133s-.267 0-.267-.133-.267-.267-.267-.533v-8.667c0-.267.133-.4.267-.533s.4-.133.667 0l8 4.267c.267.133.4.267.4.533s-.267.533-.533.667z"/>
    </symbol>
  </defs>
</svg>