<svg xmlns="http://www.w3.org/2000/svg" aria-hidden="true">
  <defs>
    <!-- Logo -->
    <symbol id="logo" viewBox="0 0 160 32">
      <path
        d="M15.92 31.84C7.142 31.84 0 24.698 0 15.92S7.142 0 15.92 0c8.778 0 15.92 7.142 15.92 15.92s-7.142 15.92-15.92 15.92zm0-30.116c-7.828 0-14.196 6.368-14.196 14.196S8.092 30.116 15.92 30.116c7.828 0 14.196-6.368 14.196-14.196S23.748 1.724 15.92 1.724z" />
      <path
        d="M16.368 25.027 12.502 13.02l-1.593 5.022H6.35v-1.94h3.139l2.998-9.456 3.974 12.344 3.058-8.574 2.788 5.619h3.18v1.94h-4.383l-1.293-2.604-3.444 9.657zM52.547 21.773H50.67v-8.294h-.06l-3.379 8.194h-1.424l-3.379-8.194h-.056v8.294h-1.886V10.088h2.421l3.581 8.82h.065l3.582-8.82h2.412v11.685zM62.247 21.773l-.997-3.02h-4.302l-.997 3.02h-2.153l4.147-11.685h2.356l4.147 11.685h-2.201zm-3.176-9.622-1.635 4.988h3.318l-1.627-4.988h-.056zM65.065 18.485h2.024c.065.535.341.967.824 1.29.488.328 1.087.492 1.808.492.703 0 1.277-.155 1.722-.47s.669-.712.669-1.2c0-.423-.164-.764-.488-1.023-.324-.263-.854-.479-1.588-.652l-1.515-.358c-1.074-.25-1.873-.634-2.395-1.156s-.781-1.204-.781-2.041c0-1.031.406-1.868 1.217-2.511s1.856-.962 3.133-.962c1.286 0 2.322.319 3.107.954s1.191 1.467 1.217 2.498h-1.994c-.047-.544-.285-.975-.703-1.282-.423-.311-.971-.466-1.644-.466-.66 0-1.191.147-1.601.444-.406.298-.613.69-.613 1.174 0 .388.16.703.475.949.315.242.833.449 1.549.626l1.346.306c1.182.272 2.041.665 2.576 1.182s.803 1.213.803 2.08c0 1.109-.414 1.985-1.243 2.636s-1.95.975-3.366.975c-1.351 0-2.434-.311-3.254-.936-.811-.626-1.243-1.476-1.286-2.55zM81.198 21.773H79.11V10.088h7.452v1.765h-5.359v3.452h4.898v1.7h-4.898v4.768h-.005zM94.425 20.746c-.751.798-1.761 1.195-3.03 1.195s-2.278-.397-3.029-1.195c-.751-.798-1.126-1.886-1.126-3.266 0-1.377.379-2.468 1.134-3.267.755-.803 1.761-1.204 3.021-1.204 1.264 0 2.27.401 3.025 1.204s1.13 1.89 1.13 3.267c0 1.381-.375 2.472-1.126 3.266zm-4.571-1.152c.38.501.89.755 1.541.755s1.161-.25 1.541-.755c.379-.505.565-1.208.565-2.114 0-.902-.19-1.605-.565-2.11s-.889-.755-1.541-.755c-.643 0-1.152.25-1.536.755-.38.505-.57 1.208-.57 2.11 0 .906.19 1.614.565 2.114zM104.457 13.187v8.583h-1.942v-1.489h-.039c-.474 1.096-1.35 1.644-2.623 1.644-.932 0-1.674-.285-2.222-.854s-.824-1.351-.824-2.334v-5.549h2.015v5.144c0 .617.146 1.087.44 1.411s.725.488 1.29.488c.578 0 1.035-.19 1.376-.565.341-.38.51-.88.51-1.506v-4.962h2.019v-.009zM106.101 21.773v-8.587h1.938v1.476h.038a2.744 2.744 0 0 1 1.04-1.208c.458-.285 1.01-.427 1.657-.427.941 0 1.67.285 2.193.85s.781 1.351.781 2.347v5.549h-2.015v-5.144c0-.617-.142-1.087-.431-1.411s-.717-.488-1.286-.488c-.578 0-1.04.19-1.381.565-.341.38-.514.876-.514 1.497v4.971h-2.019v.009zM118.567 21.912c-1.087 0-1.95-.401-2.598-1.2s-.966-1.877-.966-3.241c0-1.355.323-2.434.966-3.232.647-.798 1.51-1.2 2.598-1.2.604 0 1.139.142 1.61.427.466.285.816.673 1.049 1.156h.047v-4.535h2.015v11.685h-1.976v-1.467h-.034c-.238.492-.596.88-1.075 1.169s-1.022.436-1.635.436zm.609-7.211c-.647 0-1.161.25-1.541.751s-.565 1.174-.565 2.028c0 .859.185 1.536.561 2.032s.889.746 1.545.746c.638 0 1.147-.25 1.532-.755.384-.501.574-1.178.574-2.024 0-.841-.19-1.515-.574-2.019-.389-.505-.898-.759-1.532-.759zM127.508 21.912c-.838 0-1.523-.242-2.063-.721s-.806-1.105-.806-1.873c0-.759.28-1.364.846-1.808s1.368-.695 2.417-.759l2.265-.129v-.617c0-.449-.142-.798-.427-1.044-.285-.25-.677-.371-1.178-.371-.47 0-.854.104-1.152.315s-.479.496-.544.859h-1.873c.043-.816.393-1.48 1.049-1.989s1.518-.764 2.598-.764c1.062 0 1.916.259 2.554.777s.958 1.208.958 2.071v5.912h-1.942v-1.368h-.038a2.673 2.673 0 0 1-1.101 1.096 3.1 3.1 0 0 1-1.562.414zm.608-1.524c.578 0 1.066-.173 1.463-.514s.595-.772.595-1.282v-.656l-1.985.121c-.488.035-.863.151-1.13.358s-.402.483-.402.824c0 .35.134.63.402.837s.617.311 1.057.311zM134.342 11.18h2.015v2.006h1.618v1.553h-1.618v4.462c0 .35.082.608.25.777s.427.25.786.25c.237 0 .427-.013.574-.039v1.54c-.242.056-.591.082-1.044.082-.928 0-1.592-.177-1.99-.535s-.595-.954-.595-1.791v-4.747h-1.23v-1.553h1.23v-2.006h.004zM141.199 11.741c-.22.211-.483.319-.798.319s-.578-.108-.794-.319-.324-.47-.324-.772c0-.306.108-.57.324-.781s.479-.319.794-.319c.315 0 .578.108.798.319s.328.475.328.781c0 .302-.112.561-.328.772zm-1.803 10.032v-8.587h2.015v8.583h-2.015v.004zM149.933 20.746c-.75.798-1.76 1.195-3.029 1.195s-2.278-.397-3.03-1.195c-.75-.798-1.126-1.886-1.126-3.266 0-1.377.379-2.468 1.134-3.267.755-.803 1.761-1.204 3.021-1.204 1.264 0 2.27.401 3.025 1.204s1.13 1.89 1.13 3.267c0 1.381-.375 2.472-1.126 3.266zm-4.57-1.152c.38.501.889.755 1.541.755s1.161-.25 1.54-.755c.38-.505.566-1.208.566-2.114 0-.902-.19-1.605-.566-2.11s-.889-.755-1.54-.755c-.643 0-1.152.25-1.536.755-.38.505-.57 1.208-.57 2.11 0 .906.19 1.614.565 2.114zM152.354 21.773v-8.587h1.938v1.476h.039a2.732 2.732 0 0 1 1.04-1.208c.457-.285 1.01-.427 1.657-.427.941 0 1.67.285 2.192.85s.781 1.351.781 2.347v5.549h-2.015v-5.144c0-.617-.142-1.087-.431-1.411s-.716-.488-1.286-.488c-.578 0-1.04.19-1.381.565-.342.38-.514.876-.514 1.497v4.971h-2.02v.009z" />
    </symbol>

    <!-- Trident -->
    <symbol id="trident" viewBox="0 0 19 32">
      <path
        d="M9.684.08a4.739 4.739 0 0 0-1.201 3.154c.044 2.656.371 5.309.4 7.96.059 2.476-.687 4.8-1.594 7.069-.303.627-.629 1.239-.956 1.854l-.96-.193a1.592 1.592 0 0 1-1.257-1.872 1.6 1.6 0 0 1 1.563-1.282l.351.037-.782-6.496a9.924 9.924 0 0 0-3.962-7.077 10.013 10.013 0 0 0-1.201-.771v23.061h5.353a8.738 8.738 0 0 0 3.277 5.333c.399.274.735.635.976 1.057.24-.422.575-.783.976-1.057a8.75 8.75 0 0 0 3.277-5.333h5.353V2.463c-.419.228-.821.488-1.201.771a9.925 9.925 0 0 0-3.962 7.077l-.782 6.496.35-.037a1.602 1.602 0 0 1 1.563 1.282c.173.862-.391 1.7-1.257 1.872l-.96.193c-.327-.614-.655-1.227-.956-1.854-.908-2.267-1.654-4.591-1.595-7.069.029-2.659.356-5.309.4-7.96A4.75 4.75 0 0 0 9.697.08h-.012zM1.681 5.787a8.277 8.277 0 0 1 1.937 4.373l.64 5.357a3.197 3.197 0 0 0-1.676 2.053h-.907V5.789l.006-.002zm16.007 0v11.781h-.907a3.199 3.199 0 0 0-1.676-2.053l.64-5.357a8.314 8.314 0 0 1 1.937-4.373l.006.002zm-8.004 10.77a18.116 18.116 0 0 0 1.757 3.963 3.598 3.598 0 0 0-1.757 1.175 3.608 3.608 0 0 0-1.757-1.176 18.15 18.15 0 0 0 1.757-3.962zm-8.003 2.606h.907a3.206 3.206 0 0 0 2.241 2.27l.769.174a8.685 8.685 0 0 0-.319 2.332H1.677v-4.776l.003-.001zm15.102 0h.907v4.776h-3.602c0-.807-.113-1.59-.319-2.332l.769-.174a3.196 3.196 0 0 0 2.241-2.27l.003.001zm-9.62 2.81a1.99 1.99 0 0 1 1.719 1.965H6.881c0-.682.102-1.341.282-1.965zm5.04 0a7.08 7.08 0 0 1 .282 1.965h-2.001c0-1.004.748-1.829 1.719-1.965zm-5.138 3.559h1.819v3.351a7.21 7.21 0 0 1-1.819-3.351zm3.419 0h1.819a7.148 7.148 0 0 1-1.819 3.351v-3.351z" />
    </symbol>

    <!-- Social icons -->
    <symbol id="facebook" viewBox="0 0 32 32">
      <path d="M19 6h5V0h-5c-3.86 0-7 3.14-7 7v3H8v6h4v16h6V16h5l1-6h-6V7c0-.542.458-1 1-1z" />
    </symbol>
    <symbol id="instagram" viewBox="0 0 32 32">
      <path
        d="M16 2.881c4.275 0 4.781.019 6.462.094 1.563.069 2.406.331 2.969.55a4.952 4.952 0 0 1 1.837 1.194 5.015 5.015 0 0 1 1.2 1.838c.219.563.481 1.412.55 2.969.075 1.688.094 2.194.094 6.463s-.019 4.781-.094 6.463c-.069 1.563-.331 2.406-.55 2.969a4.94 4.94 0 0 1-1.194 1.837 5.02 5.02 0 0 1-1.837 1.2c-.563.219-1.413.481-2.969.55-1.688.075-2.194.094-6.463.094s-4.781-.019-6.463-.094c-1.563-.069-2.406-.331-2.969-.55a4.952 4.952 0 0 1-1.838-1.194 5.02 5.02 0 0 1-1.2-1.837c-.219-.563-.481-1.413-.55-2.969-.075-1.688-.094-2.194-.094-6.463s.019-4.781.094-6.463c.069-1.563.331-2.406.55-2.969a4.964 4.964 0 0 1 1.194-1.838 5.015 5.015 0 0 1 1.838-1.2c.563-.219 1.412-.481 2.969-.55 1.681-.075 2.188-.094 6.463-.094zM16 0c-4.344 0-4.887.019-6.594.094-1.7.075-2.869.35-3.881.744-1.056.412-1.95.956-2.837 1.85a7.833 7.833 0 0 0-1.85 2.831C.444 6.538.169 7.7.094 9.4.019 11.113 0 11.656 0 16s.019 4.887.094 6.594c.075 1.7.35 2.869.744 3.881.413 1.056.956 1.95 1.85 2.837a7.82 7.82 0 0 0 2.831 1.844c1.019.394 2.181.669 3.881.744 1.706.075 2.25.094 6.594.094s4.888-.019 6.594-.094c1.7-.075 2.869-.35 3.881-.744 1.05-.406 1.944-.956 2.831-1.844s1.438-1.781 1.844-2.831c.394-1.019.669-2.181.744-3.881.075-1.706.094-2.25.094-6.594s-.019-4.887-.094-6.594c-.075-1.7-.35-2.869-.744-3.881a7.506 7.506 0 0 0-1.831-2.844A7.82 7.82 0 0 0 26.482.843C25.463.449 24.301.174 22.601.099c-1.712-.081-2.256-.1-6.6-.1z" />
      <path
        d="M16 7.781c-4.537 0-8.219 3.681-8.219 8.219s3.681 8.219 8.219 8.219 8.219-3.681 8.219-8.219A8.221 8.221 0 0 0 16 7.781zm0 13.55a5.331 5.331 0 1 1 0-10.663 5.331 5.331 0 0 1 0 10.663zM26.462 7.456a1.919 1.919 0 1 1-3.838 0 1.919 1.919 0 0 1 3.838 0z" />
    </symbol>
    <symbol id="youtube" viewBox="0 0 32 32">
      <path
        d="M31.681 9.6s-.313-2.206-1.275-3.175C29.187 5.15 27.825 5.144 27.2 5.069c-4.475-.325-11.194-.325-11.194-.325h-.012s-6.719 0-11.194.325c-.625.075-1.987.081-3.206 1.356C.631 7.394.325 9.6.325 9.6s-.319 2.588-.319 5.181v2.425c0 2.587.319 5.181.319 5.181s.313 2.206 1.269 3.175c1.219 1.275 2.819 1.231 3.531 1.369 2.563.244 10.881.319 10.881.319s6.725-.012 11.2-.331c.625-.075 1.988-.081 3.206-1.356.962-.969 1.275-3.175 1.275-3.175s.319-2.587.319-5.181v-2.425c-.006-2.588-.325-5.181-.325-5.181zM12.694 20.15v-8.994l8.644 4.513-8.644 4.481z" />
    </symbol>

    <!-- Button icons -->
    <symbol id="donat" viewBox="0 0 34 32">
      <path
        d="M16.941 31.624c-4.329 0-8.471-.753-11.482-2.071-1.506-.565-2.635-1.318-3.576-2.259S.565 25.6.565 24.659s.376-1.882 1.318-2.635c.753-.753 2.071-1.506 3.576-2.259 3.012-1.129 7.153-1.882 11.482-1.882s8.471.753 11.482 2.071c1.506.565 2.635 1.318 3.576 2.259.941.753 1.318 1.694 1.318 2.635s-.376 1.882-1.318 2.635c-.753.753-2.071 1.506-3.576 2.259-3.012 1.129-7.153 1.882-11.482 1.882zm0-11.859c-4.141 0-7.906.753-10.729 1.882-1.318.565-2.259 1.129-2.824 1.694s-.753.941-.753 1.318.188.941.753 1.318c.565.565 1.694 1.318 2.824 1.694 2.824 1.129 6.588 1.882 10.729 1.882s7.906-.753 10.729-1.882c1.318-.565 2.259-1.129 2.824-1.694s.753-.941.753-1.318-.188-.941-.753-1.318c-.565-.565-1.694-1.318-2.824-1.694-2.824-1.318-6.588-1.882-10.729-1.882z" />
      <path
        d="M16.941 22.965c-4.329 0-8.471-.753-11.482-2.071-1.506-.565-2.635-1.318-3.576-2.071-.753-.941-1.129-1.694-1.129-2.635s.376-1.882 1.318-2.635c.753-.941 1.882-1.694 3.388-2.259 3.012-1.318 7.153-2.071 11.482-2.071s8.471.753 11.482 2.071c1.506.565 2.635 1.318 3.576 2.259.941.753 1.318 1.694 1.318 2.635S32.942 18.07 32 18.823c-.753.753-2.071 1.506-3.576 2.259-3.012 1.129-7.153 1.882-11.482 1.882zm0-11.859c-4.141 0-7.906.753-10.918 1.882-1.129.376-2.259 1.129-2.824 1.694s-.753.941-.753 1.506.188.941.753 1.506c.565.565 1.694 1.318 3.012 1.882 2.824 1.129 6.776 1.882 10.918 1.882s7.906-.753 10.918-1.882c1.318-.565 2.259-1.129 3.012-1.882.565-.565.753-.941.753-1.506s-.188-.941-.753-1.506c-.565-.565-1.694-1.318-3.012-1.882-3.2-1.129-6.965-1.694-11.106-1.694z" />
      <path
        d="M33.129 8.471c0 4.262-7.248 7.718-16.188 7.718S.753 12.734.753 8.471C.753 4.209 8.001.753 16.941.753s16.188 3.455 16.188 7.718z" />
    </symbol>
    <symbol id="send__ico" viewBox="0 0 32 32">
      <path
        d="M31.499.196c.393.286.554.667.482 1.143L27.41 28.768c-.06.345-.25.613-.571.804a1.1 1.1 0 0 1-.554.143c-.131 0-.274-.03-.429-.089l-8.089-3.304-4.321 5.268c-.214.274-.506.411-.875.411a.976.976 0 0 1-.393-.071c-.226-.083-.408-.223-.545-.42s-.205-.414-.205-.652v-6.232L26.857 5.715 7.768 22.233.714 19.34c-.44-.167-.679-.494-.714-.982-.024-.476.167-.827.571-1.054L30.285.161c.179-.107.369-.161.571-.161.238 0 .452.065.643.196z" />
    </symbol>
    <symbol id="support__ico" viewBox="0 0 35 32">
      <path
        d="M24.989 0c-3.051 0-5.85 1.461-7.656 3.866C15.527 1.461 12.729 0 9.677 0 4.342 0-.001 4.467-.001 9.961c0 2.58.957 5.031 2.699 6.899L17.332 32l14.372-14.872c1.896-1.877 2.961-4.43 2.961-7.168 0-5.494-4.342-9.961-9.678-9.961z" />
    </symbol>
    <symbol id="back" viewBox="0 0 32 32">
      <path
        d="M12.586 27.414l-10-10c-0.781-0.781-0.781-2.047 0-2.828l10-10c0.781-0.781 2.047-0.781 2.828 0s0.781 2.047 0 2.828l-6.586 6.586h19.172c1.105 0 2 0.895 2 2s-0.895 2-2 2h-19.172l6.586 6.586c0.39 0.39 0.586 0.902 0.586 1.414s-0.195 1.024-0.586 1.414c-0.781 0.781-2.047 0.781-2.828 0z">
      </path>
    </symbol>

    <!-- Link icon -->
    <symbol id="linc__ico" viewBox="0 0 35 32">
      <path stroke-linejoin="miter" stroke-linecap="butt" stroke-miterlimit="4" stroke-width="2.9091"
        d="M2.909 30.545l29.091-29.091M32 1.455v29.091M32 1.455h-29.091"></path>
    </symbol>

    <!-- Partners -->
    <symbol id="icon-partner__01" viewBox="0 0 145 32">
      <path
        d="M54.372 23.093h-2.208v-9.684h-.067l-3.969 9.571h-1.675l-3.969-9.571h-.067v9.684h-2.218V9.446h2.846l4.207 10.299h.076l4.207-10.299h2.837v13.647zM59.998 21.476c.679 0 1.25-.199 1.713-.596.47-.404.704-.905.704-1.504v-.766l-2.332.142c-.571.038-1.015.18-1.333.426-.311.24-.466.558-.466.955 0 .41.155.738.466.984.317.24.733.359 1.247.359zm-.714 1.778c-.984 0-1.793-.28-2.427-.842-.628-.561-.942-1.289-.942-2.185 0-.889.33-1.592.99-2.109.666-.517 1.615-.813 2.846-.889l2.665-.151v-.719c0-.523-.168-.93-.505-1.22-.33-.29-.79-.435-1.38-.435-.552 0-1.003.123-1.352.369s-.562.58-.638 1.003h-2.199c.051-.952.46-1.724 1.228-2.317.774-.599 1.793-.898 3.056-.898 1.25 0 2.25.303 2.998.908.755.605 1.133 1.412 1.133 2.421v6.904h-2.285v-1.598h-.048c-.286.536-.717.965-1.295 1.286a3.8 3.8 0 0 1-1.847.473zM66.49 15.943c0-.921.374-1.664 1.123-2.232s1.735-.851 2.96-.851c1.181 0 2.139.29 2.875.87.742.574 1.13 1.324 1.161 2.251h-2.208c-.038-.435-.223-.775-.552-1.021s-.771-.369-1.324-.369c-.52 0-.939.114-1.256.341-.317.221-.476.514-.476.879 0 .555.482.949 1.447 1.182l1.799.397c1.009.233 1.729.561 2.161.984s.647 1.006.647 1.75c0 .946-.4 1.712-1.2 2.298-.799.58-1.837.87-3.113.87-1.256 0-2.269-.284-3.036-.851-.762-.574-1.184-1.34-1.266-2.298h2.332c.07.46.279.813.628 1.059.355.246.831.369 1.428.369.577 0 1.031-.107 1.361-.322.336-.221.504-.517.504-.889a.84.84 0 0 0-.314-.69c-.203-.177-.549-.328-1.038-.454l-1.837-.426c-1.872-.435-2.808-1.384-2.808-2.847zM89.478 23.093l-1.171-3.528h-5.055l-1.171 3.528h-2.532l4.874-13.647h2.77l4.874 13.647h-2.589zm-3.732-11.235-1.923 5.826h3.903l-1.913-5.826h-.067zM97.436 21.23c.761 0 1.367-.284 1.818-.851.451-.574.676-1.349.676-2.326s-.229-1.756-.686-2.336c-.451-.586-1.053-.88-1.808-.88-.749 0-1.345.29-1.79.87-.438.58-.656 1.362-.656 2.345 0 .99.219 1.768.656 2.336.445.561 1.041.842 1.79.842zm-.01 5.646c-1.238 0-2.272-.284-3.103-.851-.825-.561-1.298-1.286-1.418-2.175h2.351c.127.385.394.694.799.927.406.24.888.359 1.447.359.762 0 1.355-.195 1.78-.586.432-.385.647-.902.647-1.551v-1.693h-.057a3.04 3.04 0 0 1-1.247 1.315c-.558.322-1.196.482-1.913.482-1.256 0-2.262-.454-3.018-1.362-.755-.914-1.133-2.147-1.133-3.698 0-1.582.378-2.834 1.133-3.755.755-.927 1.777-1.39 3.065-1.39.711 0 1.345.17 1.904.511a3.28 3.28 0 0 1 1.276 1.381h.038v-1.721h2.322v9.864c0 1.198-.445 2.153-1.332 2.866-.888.719-2.069 1.078-3.541 1.078zM108.582 14.686c-.66 0-1.212.227-1.656.681-.438.448-.682 1.025-.733 1.731h4.712c-.026-.712-.251-1.292-.676-1.74s-.974-.671-1.647-.671zm2.333 5.409h2.218c-.152.952-.637 1.724-1.456 2.317-.818.586-1.821.88-3.008.88-1.51 0-2.697-.46-3.56-1.381-.863-.927-1.294-2.191-1.294-3.792 0-1.589.428-2.862 1.285-3.821.863-.958 2.021-1.437 3.474-1.437 1.428 0 2.561.457 3.399 1.371.837.908 1.256 2.125 1.256 3.65v.766h-7.054v.142c0 .807.229 1.456.686 1.948.463.492 1.082.738 1.856.738.546 0 1.015-.123 1.409-.369.4-.252.663-.589.79-1.012zM114.76 23.093V13.068h2.275v1.721h.048a3.2 3.2 0 0 1 1.219-1.409c.539-.334 1.19-.501 1.951-.501 1.104 0 1.961.331 2.57.993.615.662.923 1.576.923 2.743v6.478h-2.37v-6.005c0-.719-.172-1.267-.514-1.646-.336-.378-.838-.567-1.504-.567-.679 0-1.221.221-1.628.662-.4.441-.6 1.025-.6 1.75v5.807h-2.37zM134.54 16.643h-2.237c-.101-.561-.342-1.012-.724-1.352-.381-.347-.876-.52-1.485-.52-.748 0-1.345.296-1.789.889-.445.586-.667 1.393-.667 2.421 0 1.04.222 1.854.667 2.44.444.58 1.047.87 1.808.87.596 0 1.085-.158 1.466-.473.381-.322.625-.769.733-1.343h2.237c-.095 1.122-.549 2.024-1.361 2.705-.806.675-1.84 1.012-3.103 1.012-1.485 0-2.665-.463-3.541-1.39-.876-.933-1.313-2.207-1.313-3.821 0-1.595.438-2.862 1.313-3.802.876-.946 2.05-1.419 3.522-1.419 1.295 0 2.342.359 3.141 1.078.806.712 1.25 1.614 1.332 2.705zM137.091 26.819c-.514 0-.825-.013-.933-.038v-1.863c.108.025.336.038.686.038.489 0 .869-.101 1.142-.303s.476-.533.609-.993c0-.006.022-.098.067-.274.051-.177.073-.271.067-.284l-3.589-10.034h2.589l2.38 8.02h.038l2.38-8.02h2.494l-3.646 10.422c-.432 1.242-.965 2.106-1.599 2.591-.635.492-1.529.738-2.685.738zM14.656 15.218c-.309-.521-.527-1.034-.624-1.592-.277-1.596.144-3.001 1.246-4.179a4.856 4.856 0 0 1 7.34.278c.871 1.083 1.222 2.334.998 3.703-.335 2.048-1.535 3.39-3.531 3.977-1.236.363-2.443.178-3.576-.432-.133-.072-.2-.057-.302.046-.681.687-1.37 1.367-2.056 2.049-.034.033-.065.069-.113.122.151.147.296.287.44.429.09.088.182.174.265.268.141.161.151.362.004.512a52.52 52.52 0 0 1-1.183 1.177c-.158.152-.381.13-.549-.032-.191-.185-.378-.374-.567-.561-.034-.033-.07-.065-.103-.095l-.726.732.623.607c.238.234.237.437 0 .672l-1.051 1.043c-.209.206-.414.208-.623.002a478.213 478.213 0 0 1-1.75-1.739c-.39-.389-.389-.83.003-1.219 1.901-1.89 3.802-3.779 5.704-5.667.038-.038.086-.065.132-.099zm4.171-4.886c-1.335-.006-2.432 1.066-2.439 2.384a2.425 2.425 0 0 0 2.417 2.439c1.337.006 2.435-1.075 2.439-2.402a2.418 2.418 0 0 0-2.417-2.421z" />
      <path
        d="M16.104 32C7.224 32 0 24.822 0 16S7.224 0 16.104 0c8.88 0 16.104 7.178 16.104 16s-7.224 16-16.104 16zm0-30.267c-7.918 0-14.36 6.4-14.36 14.267s6.442 14.267 14.36 14.267c7.918 0 14.36-6.4 14.36-14.267S24.022 1.733 16.104 1.733z" />
    </symbol>
    <symbol id="icon-partner__02" viewBox="0 0 90 32">
      <path
        d="M39.301 5.419h1.891c.695 0 1.034.339 1.034 1.113v2.71h3.701v-2.71c0-.774.339-1.113 1.115-1.113h1.81v1.79h-.776l-.081.081v7.645h-2.069v-3.823h-3.701v3.823h-2.069V7.29s0-.081-.081-.081h-.776v-1.79zM54.267 5.258h.049v1.968l-.049-.016c-1.551 0-2.747 1.274-2.747 2.887 0 1.694 1.196 3.065 2.747 3.065l.049-.016v1.952l-.049.016a4.99 4.99 0 0 1-4.994-5.016c0-2.71 2.247-4.839 4.994-4.839z" />
      <path
        d="m54.316 5.258.953.097c2.279.436 3.992 2.371 3.992 4.742A4.964 4.964 0 0 1 55.269 15l-.953.097v-1.952l1.05-.226c1.018-.468 1.746-1.548 1.746-2.823 0-1.21-.727-2.226-1.746-2.661l-1.05-.21V5.257zM59.681 5.419H63.948v1.79h-1.342v1.952h1.341v1.694h-1.342v2.129c0 .081 0 .081.097.081h1.244v1.871h-2.36c-.695 0-1.035-.339-1.035-1.097V7.21h-.873V5.42zM63.948 5.419h.032c1.908 0 3.023 1.032 3.023 2.565 0 .919-.437 1.516-.857 1.952.776.339 1.277 1.177 1.277 2.113 0 1.79-1.374 2.887-3.346 2.887h-.129v-1.871h.21c.695 0 1.115-.419 1.115-1.097s-.42-1.113-1.115-1.113H63.948V9.161h.032c.614 0 .954-.419.954-1.016s-.34-.936-.954-.936h-.032v-1.79zM71.383 5.419h1.034v2.726c-.081.177-.178.419-.178.677l-.679 1.952h.856v1.79h-1.374l-.598 1.532c-.178.581-.517.839-1.213.839h-1.293v-1.871h.437c.178 0 .178 0 .258-.081l2.748-7.565zM72.417 5.419h1.034l2.748 7.565c.081.081.081.081.259.081h.339v1.871h-1.196c-.695 0-1.034-.258-1.212-.935l-.598-1.435H72.417v-1.79h.857l-.679-1.952c0-.258-.097-.5-.178-.677V5.421zM39.301 17.645h7.483c.695 0 1.115.355 1.115 1.113v6.452c0 .081 0 .081.097.081h.679v1.871h-1.794c-.776 0-1.131-.339-1.131-1.097v-6.532s0-.097-.081-.097h-3.442v7.726h-2.069v-7.726h-.857v-1.79zM54.106 17.484h.032v1.968l-.032-.016c-1.568 0-2.763 1.274-2.763 2.887 0 1.694 1.196 3.064 2.763 3.064l.032-.016v1.952l-.032.016c-2.763 0-4.913-2.21-4.913-5.016 0-2.71 2.15-4.839 4.913-4.839zM54.138 17.484l.986.097c2.311.436 3.959 2.371 3.959 4.742 0 2.452-1.648 4.452-3.959 4.903l-.986.097v-1.952l1.099-.226c1.018-.468 1.697-1.548 1.697-2.823 0-1.21-.679-2.226-1.697-2.661l-1.099-.21v-1.968zM59.52 17.645h1.891c.695 0 1.035.355 1.035 1.113v6.452c0 .081 0 .081.081.081h2.489v-7.645h2.069v7.645h2.505c.081 0 .081 0 .081-.081v-6.452c0-.758.34-1.113 1.034-1.113h1.891v1.79h-.776c-.097 0-.097.097-.097.097v6.532c0 .758-.339 1.097-1.018 1.097h-9.213c-.776 0-1.115-.339-1.115-1.097v-6.532s0-.097-.081-.097h-.776v-1.79zM74.227 17.645h6.449c.776 0 1.034.355 1.034 1.032v1.613h-1.891v-.758c0-.097 0-.097-.097-.097h-1.196v7.726h-2.069v-7.726h-1.196c-.097 0-.097 0-.097.097v.758h-1.891v-1.613c0-.677.258-1.032.953-1.032zM84.377 17.645h1.034v2.726a1.445 1.445 0 0 0-.178.677L84.538 23h.872v1.79H84.02l-.598 1.436c-.162.677-.517.935-1.196.935h-1.293V25.29h.437c.161 0 .161 0 .258-.081l2.748-7.548v-.016zM85.411 17.645h1.018l2.764 7.564c.081.081.081.081.259.081h.339v1.871h-1.196c-.695 0-1.034-.258-1.212-.935l-.598-1.436H85.411V23h.857l-.695-1.952c0-.258-.081-.5-.162-.677v-2.726zM26.049 9.468c.097-.032.226.032.356.21l5.851 5.677c.339.339.339.855 0 1.113l-5.851 5.774c-.129.161-.259.21-.356.161s-.162-.21-.162-.419V9.839c0-.21.065-.339.162-.371zM16.044 0h.42l.388.161 6.028 5.952c.259.339.162.581-.259.581h-2.505a.786.786 0 0 0-.776.774v4.419c0 .419-.339.758-.857.758h-4.38a.762.762 0 0 1-.776-.758V7.468a.775.775 0 0 0-.776-.774H9.884c-.436 0-.517-.242-.259-.581L15.653.161 16.041 0zM6.622 9.339c.097.065.162.21.162.419v12.387c0 .226-.065.355-.162.387-.113.048-.259 0-.436-.129L.255 16.468c-.339-.258-.339-.774 0-1.113L6.186 9.5c.178-.161.323-.21.436-.161zM14.105 19.097h4.38c.517 0 .873.339.873.774v4.661c0 .516.339.855.76.855h2.327c.436 0 .598.242.259.5l-5.851 5.855c-.178.177-.388.258-.598.258s-.436-.081-.598-.258l-5.851-5.855c-.356-.258-.178-.5.242-.5h2.505c.436 0 .776-.339.776-.855v-4.661c0-.436.339-.774.776-.774z" />
    </symbol>
    <symbol id="icon-partner__03" viewBox="0 0 149 32">
      <path
        d="M98.642 24.315h-4.565v-5.444h3.887v-4.747h-3.887V9.432h4.134v-4.98H87.909v24.844h10.734v-4.982zM50.613 9.375h1.914v19.922h6.168V4.394H44.446v24.903h6.168V9.375zM42.257 24.272h-4.504v-5.503h3.836v-4.762h-3.836V9.244h4.114V4.27H31.638v24.977h10.618v-4.974zM106.917 18.872h1.912v10.426h6.17V4.454h-6.17v8.919h-1.912V4.454h-6.167v24.844h6.167V18.872zM120.385 29.297h6.17V9.432h3.7v-4.98h-13.51v4.98h3.64v19.865zM66.969 4.453H60.8v24.844h6.169V4.453zM86.162 23.853h-1.419V4.524h-6.785v19.329H75.86V4.524h-6.785v24.773h12.398V32h4.689v-8.147zM138.773 14.565c-1.799 0-3.266-1.445-3.266-3.222 0-1.774 1.467-3.219 3.266-3.219 1.803 0 3.27 1.445 3.27 3.219 0 1.776-1.467 3.222-3.27 3.222zm6.315-6.609c-.158-.741-.465-1.373-.922-1.894s-1.141-.92-2.048-1.195c-.911-.277-2.202-.415-3.879-.415h-6.237v24.844h6.168v-10.02h1.671c1.354 0 2.45-.194 3.291-.582.839-.388 1.417-.945 1.728-1.671.31-.725.466-1.881.466-3.465v-2.162c0-1.553-.079-2.7-.238-3.441z" />
      <path
        d="m139.233 12.949-.703-1.338v1.338h-1.037V9.74h1.037v1.377l.661-1.377h1.193l-.887 1.585 1.011 1.625h-1.276zm-.46-4.052c-1.368 0-2.484 1.1-2.484 2.446 0 1.351 1.116 2.447 2.484 2.447 1.372 0 2.485-1.096 2.485-2.447 0-1.346-1.114-2.446-2.485-2.446zM147.723 5.907a.174.174 0 0 1-.094.069.693.693 0 0 1-.232.029h-.432v-.403h.494c.11 0 .192.02.237.058a.17.17 0 0 1 .06.137c0 .04-.01.075-.033.109zm.651 1.197-.33-.51a1.528 1.528 0 0 0-.196-.239.573.573 0 0 0 .388-.557.63.63 0 0 0-.095-.34.532.532 0 0 0-.266-.224 1.24 1.24 0 0 0-.428-.057h-.957v2.096h.474V6.44h.182c.075 0 .105.005.117.007a.31.31 0 0 1 .079.035c.017.012.05.038.1.101.045.056.105.141.176.251l.252.39.032.051h.579l-.108-.168z" />
      <path
        d="M147.366 4.295c-1.084 0-1.967.87-1.967 1.938s.882 1.938 1.967 1.938 1.968-.87 1.968-1.938c0-1.069-.883-1.938-1.968-1.938zm1.567 1.939c0 .85-.703 1.543-1.567 1.543a1.557 1.557 0 0 1-1.567-1.543c0-.852.702-1.544 1.567-1.544.863 0 1.567.692 1.567 1.544zM13.544 28.305c-6.106 0-11.073-4.897-11.073-10.916 0-5.362 3.943-9.83 9.12-10.742v2.389c0 .642.306 1.232.817 1.605v2.007H7.846c-.527 0-1.004.263-1.281.71-.268.445-.284 1-.042 1.446l5.764 10.847c.259.487.768.79 1.327.79.562 0 1.07-.304 1.325-.79l5.767-10.845a1.468 1.468 0 0 0-.046-1.455 1.513 1.513 0 0 0-1.276-.703H14.82v-2.006c.514-.375.822-.966.822-1.606V6.672c5.106.969 8.976 5.405 8.976 10.717 0 6.019-4.967 10.916-11.073 10.916zm2.098-24.106V1.993c0-1.1-.909-1.993-2.027-1.993-1.115 0-2.022.894-2.022 1.993v2.185C5.047 5.114.002 10.68.002 17.389c0 7.362 6.076 13.351 13.544 13.351S27.09 24.751 27.09 17.389c0-6.659-4.971-12.194-11.447-13.191z" />
    </symbol>
    <symbol id="icon-partner__04" viewBox="0 0 123 32">
      <path
        d="M54.829 16.69h2.564l-2.564 8.017h-2.244l-1.282-4.281-1.282 4.281h-2.243l-2.564-8.017h2.564l1.154 4.297 1.25-4.297h2.244l1.25 4.297 1.154-4.297zM60.181 21.66c.278.748.919 1.122 1.923 1.122.651 0 1.164-.203 1.538-.609l1.923 1.106c-.791 1.101-1.955 1.651-3.493 1.651-1.346 0-2.423-.401-3.229-1.203s-1.21-1.812-1.21-3.03c0-1.208.398-2.215 1.194-3.022s1.819-1.21 3.069-1.21c1.165 0 2.134.404 2.908 1.21s1.162 1.815 1.162 3.022c0 .342-.032.663-.096.962h-5.689zm-.048-1.796h3.445c-.235-.844-.801-1.267-1.698-1.267-.93 0-1.512.422-1.747 1.267zM67.329 24.706V13.002h2.404v11.704h-2.404zM71.495 24.706V13.002h2.404v11.704h-2.404zM79.507 24.931c-1.218 0-2.23-.406-3.037-1.219s-1.21-1.817-1.21-3.014c0-1.197.403-2.202 1.21-3.014s1.819-1.219 3.037-1.219c.769 0 1.477.187 2.123.561s1.145.871 1.499 1.491l-2.099 1.219c-.289-.599-.807-.898-1.555-.898-.523 0-.956.174-1.298.521s-.513.794-.513 1.339.17.991.513 1.338c.342.348.775.521 1.298.521.758 0 1.276-.299 1.555-.898l2.099 1.203c-.353.631-.85 1.133-1.491 1.507s-1.351.561-2.131.561zM86.574 18.117c.15-.513.452-.906.906-1.178s.953-.409 1.499-.409v2.726c-.587-.096-1.136.003-1.643.297s-.761.804-.761 1.531v3.624h-2.404v-8.017h2.404v1.427zM95.308 16.69h2.564l-2.741 7.776c-.449 1.261-1.039 2.165-1.77 2.71s-1.665.791-2.797.738v-2.245c.555 0 .983-.099 1.282-.297s.539-.542.721-1.034l-3.189-7.648h2.645l1.779 4.906 1.506-4.906zM103.545 16.465c1.058 0 1.96.409 2.709 1.227s1.122 1.82 1.122 3.006-.374 2.188-1.122 3.006c-.747.817-1.651 1.227-2.709 1.227-1.025 0-1.822-.326-2.388-.978v3.96h-2.404V16.69h2.404v.754c.566-.652 1.363-.978 2.388-.978zm-1.851 5.66c.358.353.814.529 1.37.529s1.013-.177 1.37-.529c.358-.353.537-.828.537-1.427s-.179-1.074-.537-1.427c-.358-.353-.814-.529-1.37-.529s-1.013.177-1.37.529c-.358.353-.537.828-.537 1.427s.179 1.074.537 1.427zM113.273 18.999h-1.651v2.838c0 .321.128.524.385.609s.678.112 1.266.08v2.18c-1.528.16-2.586.013-3.173-.441s-.881-1.264-.881-2.429v-2.838h-1.282v-2.309h1.282v-1.523l2.404-.722v2.244h1.651v2.309zM121.333 23.704c-.823.817-1.827 1.226-3.013 1.226s-2.191-.409-3.013-1.226c-.822-.818-1.234-1.82-1.234-3.006s.411-2.189 1.234-3.006c.823-.818 1.827-1.227 3.013-1.227s2.19.409 3.013 1.227c.822.817 1.234 1.82 1.234 3.006s-.412 2.188-1.234 3.006zm-4.326-1.643c.353.353.79.529 1.314.529s.962-.176 1.314-.529c.352-.353.529-.807.529-1.363s-.177-1.01-.529-1.363c-.353-.353-.791-.529-1.314-.529s-.961.177-1.314.529c-.353.353-.529.807-.529 1.363s.176 1.01.529 1.363zM42.355 1.442A1.369 1.369 0 0 0 40.49.404l-9.233 3.768c-.674.275-.568 1.261.149 1.384a25.158 25.158 0 0 1 3.094.732l-.043.075a20.313 20.313 0 0 1 1.576 7.871c0 1.535-.171 3.031-.493 4.469l5.12-8.973a19.57 19.57 0 0 1 2.082 2.01c.487.546 1.382.124 1.26-.597l-1.648-9.702z" />
      <path
        d="M36.034 14.234c0-2.79-.561-5.449-1.576-7.871l-.915 1.604a14.572 14.572 0 0 1 2.267 7.824c0 1.017-.104 2.01-.302 2.969l.032-.056c.322-1.438.493-2.934.493-4.469z" />
      <path
        d="m33.543 7.967-6.855 12.019-5.012-10.868a3.525 3.525 0 0 0-6.399-.008L9.995 20.489l-3.679-6.451a1.447 1.447 0 0 0-1.975-.54l-3.609 2.06a1.449 1.449 0 0 0-.54 1.976l7.063 12.384a3.526 3.526 0 0 0 6.26-.263l4.949-10.663 4.69 10.17a3.526 3.526 0 0 0 3.05 2.047c.279.011.554-.012.821-.064a3.523 3.523 0 0 0 2.393-1.712l.211-.369 5.881-10.305c.197-.959.302-1.952.302-2.969 0-2.878-.834-5.56-2.268-7.824z" />
    </symbol>

    <!-- arrow -->
    <symbol id="arrow__next" viewBox="0 0 32 32">
      <path d="M32 16c0 8.837-7.163 16-16 16S0 24.837 0 16 7.163 0 16 0s16 7.163 16 16z" />
      <path stroke-width=".842"
        d="M31.579 16c0 8.604-6.975 15.579-15.579 15.579S.421 24.604.421 16C.421 7.396 7.396.421 16 .421S31.579 7.396 31.579 16zM10.105 16.06h11.909m.001 0-5.955 5.955m5.955-5.955-5.955-5.955" />
    </symbol>
    <symbol id="arrow__previous" viewBox="0 0 32 32">
      <path d="M0 16C0 7.163 7.163 0 16 0s16 7.163 16 16-7.163 16-16 16S0 24.837 0 16z" />
      <path stroke-width=".842"
        d="M.421 16C.421 7.396 7.396.421 16 .421S31.579 7.396 31.579 16c0 8.604-6.975 15.579-15.579 15.579S.421 24.604.421 16zM21.895 15.94H9.986m-.001 0 5.955-5.955M9.985 15.94l5.955 5.955" />
    </symbol>
  </defs>
</svg>