<svg xmlns="http://www.w3.org/2000/svg" aria-hidden="true">
  <defs>
    <symbol id="logo" viewBox="0 0 160 32">
      <path d="M15.92 31.84C7.142 31.84 0 24.698 0 15.92S7.142 0 15.92 0c8.778 0 15.92 7.142 15.92 15.92s-7.142 15.92-15.92 15.92zm0-30.116c-7.828 0-14.196 6.368-14.196 14.196S8.092 30.116 15.92 30.116c7.828 0 14.196-6.368 14.196-14.196S23.748 1.724 15.92 1.724z"/>
      <path d="M16.368 25.027 12.502 13.02l-1.593 5.022H6.35v-1.94h3.139l2.998-9.456 3.974 12.344 3.058-8.574 2.788 5.619h3.18v1.94h-4.383l-1.293-2.604-3.444 9.657zM52.547 21.773H50.67v-8.294h-.06l-3.379 8.194h-1.424l-3.379-8.194h-.056v8.294h-1.886V10.088h2.421l3.581 8.82h.065l3.582-8.82h2.412v11.685zM62.247 21.773l-.997-3.02h-4.302l-.997 3.02h-2.153l4.147-11.685h2.356l4.147 11.685h-2.201zm-3.176-9.622-1.635 4.988h3.318l-1.627-4.988h-.056zM65.065 18.485h2.024c.065.535.341.967.824 1.29.488.328 1.087.492 1.808.492.703 0 1.277-.155 1.722-.47s.669-.712.669-1.2c0-.423-.164-.764-.488-1.023-.324-.263-.854-.479-1.588-.652l-1.515-.358c-1.074-.25-1.873-.634-2.395-1.156s-.781-1.204-.781-2.041c0-1.031.406-1.868 1.217-2.511s1.856-.962 3.133-.962c1.286 0 2.322.319 3.107.954s1.191 1.467 1.217 2.498h-1.994c-.047-.544-.285-.975-.703-1.282-.423-.311-.971-.466-1.644-.466-.66 0-1.191.147-1.601.444-.406.298-.613.69-.613 1.174 0 .388.16.703.475.949.315.242.833.449 1.549.626l1.346.306c1.182.272 2.041.665 2.576 1.182s.803 1.213.803 2.08c0 1.109-.414 1.985-1.243 2.636s-1.95.975-3.366.975c-1.351 0-2.434-.311-3.254-.936-.811-.626-1.243-1.476-1.286-2.55zM81.198 21.773H79.11V10.088h7.452v1.765h-5.359v3.452h4.898v1.7h-4.898v4.768h-.005zM94.425 20.746c-.751.798-1.761 1.195-3.03 1.195s-2.278-.397-3.029-1.195c-.751-.798-1.126-1.886-1.126-3.266 0-1.377.379-2.468 1.134-3.267.755-.803 1.761-1.204 3.021-1.204 1.264 0 2.27.401 3.025 1.204s1.13 1.89 1.13 3.267c0 1.381-.375 2.472-1.126 3.266zm-4.571-1.152c.38.501.89.755 1.541.755s1.161-.25 1.541-.755c.379-.505.565-1.208.565-2.114 0-.902-.19-1.605-.565-2.11s-.889-.755-1.541-.755c-.643 0-1.152.25-1.536.755-.38.505-.57 1.208-.57 2.11 0 .906.19 1.614.565 2.114zM104.457 13.187v8.583h-1.942v-1.489h-.039c-.474 1.096-1.35 1.644-2.623 1.644-.932 0-1.674-.285-2.222-.854s-.824-1.351-.824-2.334v-5.549h2.015v5.144c0 .617.146 1.087.44 1.411s.725.488 1.29.488c.578 0 1.035-.19 1.376-.565.341-.38.51-.88.51-1.506v-4.962h2.019v-.009zM106.101 21.773v-8.587h1.938v1.476h.038a2.744 2.744 0 0 1 1.04-1.208c.458-.285 1.01-.427 1.657-.427.941 0 1.67.285 2.193.85s.781 1.351.781 2.347v5.549h-2.015v-5.144c0-.617-.142-1.087-.431-1.411s-.717-.488-1.286-.488c-.578 0-1.04.19-1.381.565-.341.38-.514.876-.514 1.497v4.971h-2.019v.009zM118.567 21.912c-1.087 0-1.95-.401-2.598-1.2s-.966-1.877-.966-3.241c0-1.355.323-2.434.966-3.232.647-.798 1.51-1.2 2.598-1.2.604 0 1.139.142 1.61.427.466.285.816.673 1.049 1.156h.047v-4.535h2.015v11.685h-1.976v-1.467h-.034c-.238.492-.596.88-1.075 1.169s-1.022.436-1.635.436zm.609-7.211c-.647 0-1.161.25-1.541.751s-.565 1.174-.565 2.028c0 .859.185 1.536.561 2.032s.889.746 1.545.746c.638 0 1.147-.25 1.532-.755.384-.501.574-1.178.574-2.024 0-.841-.19-1.515-.574-2.019-.389-.505-.898-.759-1.532-.759zM127.508 21.912c-.838 0-1.523-.242-2.063-.721s-.806-1.105-.806-1.873c0-.759.28-1.364.846-1.808s1.368-.695 2.417-.759l2.265-.129v-.617c0-.449-.142-.798-.427-1.044-.285-.25-.677-.371-1.178-.371-.47 0-.854.104-1.152.315s-.479.496-.544.859h-1.873c.043-.816.393-1.48 1.049-1.989s1.518-.764 2.598-.764c1.062 0 1.916.259 2.554.777s.958 1.208.958 2.071v5.912h-1.942v-1.368h-.038a2.673 2.673 0 0 1-1.101 1.096 3.1 3.1 0 0 1-1.562.414zm.608-1.524c.578 0 1.066-.173 1.463-.514s.595-.772.595-1.282v-.656l-1.985.121c-.488.035-.863.151-1.13.358s-.402.483-.402.824c0 .35.134.63.402.837s.617.311 1.057.311zM134.342 11.18h2.015v2.006h1.618v1.553h-1.618v4.462c0 .35.082.608.25.777s.427.25.786.25c.237 0 .427-.013.574-.039v1.54c-.242.056-.591.082-1.044.082-.928 0-1.592-.177-1.99-.535s-.595-.954-.595-1.791v-4.747h-1.23v-1.553h1.23v-2.006h.004zM141.199 11.741c-.22.211-.483.319-.798.319s-.578-.108-.794-.319-.324-.47-.324-.772c0-.306.108-.57.324-.781s.479-.319.794-.319c.315 0 .578.108.798.319s.328.475.328.781c0 .302-.112.561-.328.772zm-1.803 10.032v-8.587h2.015v8.583h-2.015v.004zM149.933 20.746c-.75.798-1.76 1.195-3.029 1.195s-2.278-.397-3.03-1.195c-.75-.798-1.126-1.886-1.126-3.266 0-1.377.379-2.468 1.134-3.267.755-.803 1.761-1.204 3.021-1.204 1.264 0 2.27.401 3.025 1.204s1.13 1.89 1.13 3.267c0 1.381-.375 2.472-1.126 3.266zm-4.57-1.152c.38.501.889.755 1.541.755s1.161-.25 1.54-.755c.38-.505.566-1.208.566-2.114 0-.902-.19-1.605-.566-2.11s-.889-.755-1.54-.755c-.643 0-1.152.25-1.536.755-.38.505-.57 1.208-.57 2.11 0 .906.19 1.614.565 2.114zM152.354 21.773v-8.587h1.938v1.476h.039a2.732 2.732 0 0 1 1.04-1.208c.457-.285 1.01-.427 1.657-.427.941 0 1.67.285 2.192.85s.781 1.351.781 2.347v5.549h-2.015v-5.144c0-.617-.142-1.087-.431-1.411s-.716-.488-1.286-.488c-.578 0-1.04.19-1.381.565-.342.38-.514.876-.514 1.497v4.971h-2.02v.009z"/>
    </symbol>
  </defs>
</svg>