<svg width="23" height="38" viewBox="0 0 23 38" fill="none" xmlns="http://www.w3.org/2000/svg">
<g clip-path="url(#clip0_81_601)">
<path d="M11.4999 0.0944824C10.6141 1.09458 10.0742 2.40284 10.0742 3.83966C10.1265 6.99403 10.5152 10.1446 10.5495 13.2924C10.6198 16.2322 9.734 18.9924 8.65623 21.6864C8.29698 22.4304 7.90921 23.1582 7.52049 23.888L6.37999 23.6592C5.35069 23.455 4.6816 22.4597 4.88784 21.4359C5.06747 20.5408 5.86012 19.914 6.744 19.914L7.16028 19.9585L6.23173 12.245C5.92855 8.81369 4.14747 5.79826 1.52718 3.84155C1.07669 3.50503 0.598629 3.19687 0.101562 2.92558V30.3102H6.45793C6.93313 32.8718 8.35305 35.1121 10.3489 36.6435C10.8232 36.9687 11.2214 37.3978 11.5075 37.8988C11.7926 37.3978 12.1908 36.9687 12.666 36.6435C14.6619 35.1084 16.0818 32.8728 16.557 30.3102H22.9134V2.92558C22.4163 3.19687 21.9383 3.50503 21.4878 3.84155C18.8646 5.8011 17.0873 8.81369 16.7832 12.245L15.8547 19.9585L16.2709 19.914C17.1548 19.9178 17.9475 20.5398 18.1271 21.4359C18.3324 22.4597 17.6633 23.4541 16.6349 23.6592L15.4945 23.888C15.1057 23.1592 14.717 22.4313 14.3587 21.6864C13.28 18.9943 12.3942 16.2341 12.4645 13.2924C12.4988 10.1352 12.8875 6.98742 12.9397 3.83966C12.9397 2.40284 12.3999 1.09836 11.5141 0.0944824H11.4999ZM1.99574 6.87209C3.22557 8.30796 4.05148 10.0955 4.29574 12.0645L5.05607 18.4262C4.08189 18.9083 3.34532 19.793 3.0659 20.864H1.98908V6.87399L1.99574 6.87209ZM21.004 6.87209V20.8621H19.9272C19.6497 19.7921 18.9112 18.9073 17.937 18.4243L18.6973 12.0626C18.9435 10.0955 19.7694 8.30607 20.9973 6.86926L21.004 6.87209ZM11.4999 19.6616C12.0102 21.3225 12.7126 22.9039 13.586 24.3672C12.7554 24.6177 12.033 25.1055 11.4999 25.7624C10.9667 25.1055 10.2444 24.6187 9.41371 24.3663C10.2871 22.9002 10.9895 21.3225 11.4999 19.6616ZM1.99574 22.7565H3.07255C3.41185 24.0619 4.4364 25.0922 5.73371 25.4524L6.64706 25.6594C6.4028 26.5404 6.26879 27.4649 6.26879 28.4291H1.99193V22.7574L1.99574 22.7565ZM19.93 22.7565H21.0069V28.4281H16.73C16.73 27.4696 16.596 26.5404 16.3517 25.6585L17.2651 25.4514C18.5671 25.0913 19.5907 24.06 19.9262 22.7555L19.93 22.7565ZM8.50607 26.0933C9.65892 26.2549 10.5476 27.2371 10.5476 28.4272H8.17152C8.17152 27.6171 8.29222 26.8353 8.50607 26.0933ZM14.4908 26.0933C14.7047 26.8353 14.8254 27.6152 14.8254 28.4272H12.4493C12.4493 27.2352 13.338 26.2549 14.4908 26.0933ZM8.38916 30.3187H10.5495V34.2983C9.504 33.2065 8.74367 31.8406 8.38916 30.3187ZM12.4503 30.3187H14.6106C14.2608 31.8406 13.4986 33.2084 12.4503 34.2983V30.3187Z" fill="#0D0D0D"/>
</g>
<defs>
<clipPath id="clip0_81_601">
<rect width="23" height="38" fill="white"/>
</clipPath>
</defs>
</svg>
