<svg width="24" height="24" viewBox="0 0 24 24" fill="none" xmlns="http://www.w3.org/2000/svg">
<path d="M23.3 7.3C23.3 7.1 23 5.5 22.3 4.8C21.4 3.8 20.4 3.7 19.9 3.7H19.8C16.7 3.5 12.1 3.5 12 3.5C12 3.5 7.3 3.5 4.2 3.7H4.1C3.6 3.7 2.6 3.8 1.7 4.8C1 5.6 0.7 7.2 0.7 7.4C0.7 7.5 0.5 9.3 0.5 11.2V12.9C0.5 14.8 0.7 16.6 0.7 16.7C0.7 16.9 1 18.5 1.7 19.2C2.5 20.1 3.5 20.2 4.1 20.3C4.2 20.3 4.3 20.3 4.4 20.3C6.2 20.5 11.7 20.5 11.9 20.5C11.9 20.5 16.6 20.5 19.7 20.3H19.8C20.3 20.2 21.3 20.1 22.2 19.2C22.9 18.4 23.2 16.8 23.2 16.6C23.2 16.5 23.4 14.7 23.4 12.8V11.1C23.5 9.3 23.3 7.4 23.3 7.3ZM15.9 12.2L9.9 15.4C9.8 15.4 9.8 15.5 9.7 15.5C9.6 15.5 9.5 15.5 9.5 15.4C9.4 15.3 9.3 15.2 9.3 15V8.5C9.3 8.3 9.4 8.2 9.5 8.1C9.6 8 9.8 8 10 8.1L16 11.3C16.2 11.4 16.3 11.5 16.3 11.7C16.3 11.9 16.1 12.1 15.9 12.2Z" fill="#E5E5E5"/>
</svg>
